<?xml version="1.0" encoding="UTF-8"?>
<svg width="320" height="320" version="1.0" xmlns="http://www.w3.org/2000/svg" xmlns:xlink="http://www.w3.org/1999/xlink">
  <defs>
    <linearGradient id="linearGradient8881">
      <stop stop-color="#fff" offset="0"/>
      <stop stop-color="#fff" stop-opacity="0" offset=".5"/>
      <stop stop-color="#fff" stop-opacity="0" offset="1"/>
    </linearGradient>
    <linearGradient id="linearGradient6128">
      <stop offset="0"/>
      <stop stop-color="#fff" offset="1"/>
    </linearGradient>
    <linearGradient id="linearGradient6071">
      <stop stop-color="#fff" offset="0"/>
      <stop stop-color="#bababa" offset=".85897"/>
      <stop stop-color="#fff" offset=".9359"/>
      <stop offset="1"/>
    </linearGradient>
    <linearGradient id="linearGradient3958">
      <stop stop-color="#fff" stop-opacity="0" offset="0"/>
      <stop stop-color="#fff" offset="1"/>
    </linearGradient>
    <linearGradient id="linearGradient3291">
      <stop offset="0"/>
      <stop stop-opacity="0" offset="1"/>
    </linearGradient>
    <linearGradient id="linearGradient3919">
      <stop offset="0"/>
      <stop stop-color="#c1c3c0" offset="1"/>
    </linearGradient>
    <linearGradient id="linearGradient3974">
      <stop stop-color="#fff" offset="0"/>
      <stop stop-color="#fff" stop-opacity="0" offset="1"/>
    </linearGradient>
    <linearGradient id="linearGradient4039-0">
      <stop stop-opacity="0" offset="0"/>
      <stop offset="1"/>
    </linearGradient>
    <clipPath id="clipPath17725">
      <path d="m42.909-379.28a0.69585 0.69585 0 0 0-0.51519 0.6061c-0.18142 1.5011-1.449 3.056-3.273 3.2427a0.69585 0.69585 0 0 0-0.63641 0.69702v4.5458a0.69585 0.69585 0 0 0 0.69702 0.69702h3.2124v24.214l-5.2731 1.7274a0.69585 0.69585 0 0 0-0.48488 0.66671v1.394a0.69585 0.69585 0 0 0 0.69702 0.69702h21.335a0.69585 0.69585 0 0 0 0.69702-0.69702v-1.394a0.69585 0.69585 0 0 0-0.48488-0.66671l-5.2731-1.7274v-33.305a0.69585 0.69585 0 0 0-0.69702-0.69702h-9.8189a0.69585 0.69585 0 0 0-0.12122 0 0.69585 0.69585 0 0 0-0.0606 0z" fill="#fc0"/>
    </clipPath>
    <linearGradient id="linearGradient36843" x1="-20.022" x2="-20.022" y1="33.509" y2="31.168" gradientTransform="matrix(1.1231 0 0 1.1231 742.32 -257.8)" gradientUnits="userSpaceOnUse">
      <stop offset="0"/>
      <stop stop-color="#fff" offset=".5"/>
      <stop offset="1"/>
    </linearGradient>
    <linearGradient id="linearGradient36845" x1="-19.441" x2="-19.441" y1="33.211" y2="34.567" gradientTransform="matrix(1.1231 0 0 1.1231 742.32 -248.82)" gradientUnits="userSpaceOnUse">
      <stop offset="0"/>
      <stop stop-color="#fff" offset=".5"/>
      <stop offset="1"/>
    </linearGradient>
    <linearGradient id="linearGradient36847" x1="455.1" x2="455.1" y1="-240.34" y2="-239.77" gradientTransform="matrix(.98259 0 0 .98259 267.92 16.097)" gradientUnits="userSpaceOnUse" xlink:href="#linearGradient3291"/>
    <linearGradient id="linearGradient36849" x1="455.48" x2="455.16" y1="-259.41" y2="-231.04" gradientTransform="matrix(.98259 0 0 .98259 267.92 16.097)" gradientUnits="userSpaceOnUse" xlink:href="#linearGradient3291"/>
    <linearGradient id="linearGradient36851" x1="459" x2="459" y1="-226.29" y2="-249.95" gradientTransform="matrix(.98259 0 0 .98259 267.92 16.097)" gradientUnits="userSpaceOnUse" xlink:href="#linearGradient4039-0"/>
    <linearGradient id="linearGradient36853" x1="451.72" x2="451.94" y1="-240.36" y2="-206.05" gradientTransform="matrix(.98259 0 0 .98259 267.92 16.097)" gradientUnits="userSpaceOnUse" xlink:href="#linearGradient8881"/>
    <linearGradient id="linearGradient36855" x1="459.81" x2="459.81" y1="-241.05" y2="-216.79" gradientTransform="matrix(.98259 0 0 .98259 267.92 16.097)" gradientUnits="userSpaceOnUse">
      <stop stop-color="#fff" stop-opacity="0" offset="0"/>
      <stop stop-color="#fff" offset="1"/>
    </linearGradient>
    <linearGradient id="linearGradient36857" x1="452.38" x2="453.81" y1="-249.92" y2="-209.5" gradientTransform="matrix(.98259 0 0 .98259 267.92 16.097)" gradientUnits="userSpaceOnUse">
      <stop stop-color="#fff" stop-opacity="0" offset="0"/>
      <stop stop-color="#fff" offset="1"/>
    </linearGradient>
    <linearGradient id="linearGradient36859" x1="460.19" x2="460.19" y1="-226.54" y2="-227.13" gradientTransform="matrix(.98259 0 0 -1.6377 267.92 -578.09)" gradientUnits="userSpaceOnUse">
      <stop stop-opacity=".7" offset="0"/>
      <stop stop-opacity="0" offset="1"/>
    </linearGradient>
    <linearGradient id="linearGradient36861" x1="456.69" x2="456.3" y1="-240.64" y2="-247.24" gradientTransform="matrix(.98259 0 0 .98259 267.92 16.097)" gradientUnits="userSpaceOnUse">
      <stop offset="0"/>
      <stop stop-color="#c1c3c0" offset="1"/>
    </linearGradient>
    <linearGradient id="linearGradient36863" x1="459.34" x2="459.34" y1="-240.33" y2="-248.76" gradientTransform="matrix(.98259 0 0 .98259 267.92 16.097)" gradientUnits="userSpaceOnUse" xlink:href="#linearGradient3291"/>
    <linearGradient id="linearGradient36865" x1="459.46" x2="459.46" y1="-258.3" y2="-256.23" gradientTransform="matrix(.98259 0 0 .52004 267.92 -102.43)" gradientUnits="userSpaceOnUse" xlink:href="#linearGradient3291"/>
    <linearGradient id="linearGradient36867" x1="461.96" x2="461.91" y1="-264.2" y2="-251.56" gradientTransform="matrix(.98259 0 0 .98259 267.92 16.097)" gradientUnits="userSpaceOnUse" xlink:href="#linearGradient8881"/>
    <linearGradient id="linearGradient36871" x1="441.25" x2="443.48" y1="-235.23" y2="-234.82" gradientTransform="translate(260,20)" gradientUnits="userSpaceOnUse">
      <stop stop-color="#fff" offset="0"/>
      <stop offset="1"/>
    </linearGradient>
    <linearGradient id="linearGradient36873" x1="-31.439" x2="-31.439" y1="33.676" y2="30.73" gradientTransform="matrix(.95946 0 0 .95946 -1.2789 1.4439)" gradientUnits="userSpaceOnUse" xlink:href="#linearGradient3919"/>
    <linearGradient id="linearGradient36875" x1="-30.222" x2="-31.794" y1="32.356" y2="32.041" gradientUnits="userSpaceOnUse" xlink:href="#linearGradient3958"/>
    <linearGradient id="linearGradient36893" x1="461.83" x2="462.78" y1="-242.18" y2="-227.86" gradientTransform="matrix(.98259 0 0 .98259 267.92 16.097)" gradientUnits="userSpaceOnUse" xlink:href="#linearGradient3291"/>
    <linearGradient id="linearGradient36895" x1="452.2" x2="454.58" y1="-228.35" y2="-245.32" gradientTransform="matrix(.98259 0 0 .98259 267.92 16.097)" gradientUnits="userSpaceOnUse" xlink:href="#linearGradient3974"/>
    <linearGradient id="linearGradient36897" x1="441.88" x2="442.8" y1="-228.83" y2="-228.83" gradientTransform="translate(260,20)" gradientUnits="userSpaceOnUse">
      <stop offset="0"/>
      <stop stop-opacity="0" offset="1"/>
    </linearGradient>
    <linearGradient id="linearGradient36899" x1="-18.606" x2="-18.606" y1="53.932" y2="45.811" gradientTransform="translate(400,-160)" gradientUnits="userSpaceOnUse">
      <stop stop-color="#990" offset="0"/>
      <stop offset=".5"/>
      <stop stop-color="#990" offset="1"/>
    </linearGradient>
    <radialGradient id="radialGradient36901" cx="-33.232" cy="28.72" r="1.9817" gradientUnits="userSpaceOnUse" xlink:href="#linearGradient6071"/>
    <radialGradient id="radialGradient36903" cx="-32.895" cy="29.419" r="1.6251" gradientTransform="matrix(1.0676 0 0 1.0678 727.5 -156)" gradientUnits="userSpaceOnUse" xlink:href="#linearGradient6128"/>
    <radialGradient id="radialGradient36905" cx="-32.895" cy="29.419" r="1.6251" gradientTransform="matrix(1.0675 .017799 -.017801 1.0676 728 -155.4)" gradientUnits="userSpaceOnUse" xlink:href="#linearGradient6128"/>
    <radialGradient id="radialGradient36907" cx="-32.895" cy="29.419" r="1.6251" gradientTransform="matrix(1.0659 .06022 -.060229 1.0661 729.17 -153.95)" gradientUnits="userSpaceOnUse" xlink:href="#linearGradient6128"/>
    <radialGradient id="radialGradient36909" cx="-32.895" cy="29.419" r="1.6251" gradientTransform="matrix(1.0633 .095924 -.095938 1.0635 730.11 -152.69)" gradientUnits="userSpaceOnUse" xlink:href="#linearGradient6128"/>
    <radialGradient id="radialGradient36911" cx="-32.895" cy="29.419" r="1.6251" gradientTransform="matrix(1.0594 .13199 -.13201 1.0596 731.02 -151.38)" gradientUnits="userSpaceOnUse" xlink:href="#linearGradient6128"/>
    <linearGradient id="linearGradient36913" x1="-33.918" x2="-35.463" y1="25.691" y2="21.325" gradientUnits="userSpaceOnUse" xlink:href="#linearGradient3958"/>
    <radialGradient id="radialGradient36917" cx="-32.895" cy="29.419" r="1.6251" gradientTransform="matrix(.61707 0 0 .61716 725.85 -248.7)" gradientUnits="userSpaceOnUse" xlink:href="#linearGradient6128"/>
    <radialGradient id="radialGradient36919" cx="-32.895" cy="29.419" r="1.6251" gradientTransform="matrix(.61698 .010287 -.010289 .61707 726.14 -248.36)" gradientUnits="userSpaceOnUse" xlink:href="#linearGradient6128"/>
    <radialGradient id="radialGradient36921" cx="-32.895" cy="29.419" r="1.6251" gradientTransform="matrix(.61609 .034806 -.034811 .61617 726.81 -247.52)" gradientUnits="userSpaceOnUse" xlink:href="#linearGradient6128"/>
    <radialGradient id="radialGradient36923" cx="-32.895" cy="29.419" r="1.6251" gradientTransform="matrix(.61457 .055443 -.055451 .61466 727.36 -246.79)" gradientUnits="userSpaceOnUse" xlink:href="#linearGradient6128"/>
    <radialGradient id="radialGradient36925" cx="-32.895" cy="29.419" r="1.6251" gradientTransform="matrix(.61234 .076289 -.0763 .61242 727.88 -246.03)" gradientUnits="userSpaceOnUse" xlink:href="#linearGradient6128"/>
    <radialGradient id="radialGradient36931" cx="-32.895" cy="29.419" r="1.6251" gradientTransform="matrix(.61707 0 0 .61716 729.16 -248.7)" gradientUnits="userSpaceOnUse" xlink:href="#linearGradient6128"/>
    <radialGradient id="radialGradient36933" cx="-32.895" cy="29.419" r="1.6251" gradientTransform="matrix(.61698 .010287 -.010289 .61707 729.45 -248.36)" gradientUnits="userSpaceOnUse" xlink:href="#linearGradient6128"/>
    <radialGradient id="radialGradient36935" cx="-32.895" cy="29.419" r="1.6251" gradientTransform="matrix(.61609 .034806 -.034811 .61617 730.13 -247.52)" gradientUnits="userSpaceOnUse" xlink:href="#linearGradient6128"/>
    <radialGradient id="radialGradient36937" cx="-32.895" cy="29.419" r="1.6251" gradientTransform="matrix(.61457 .055443 -.055451 .61466 730.67 -246.79)" gradientUnits="userSpaceOnUse" xlink:href="#linearGradient6128"/>
    <radialGradient id="radialGradient36939" cx="-32.895" cy="29.419" r="1.6251" gradientTransform="matrix(.61234 .076289 -.0763 .61242 731.19 -246.03)" gradientUnits="userSpaceOnUse" xlink:href="#linearGradient6128"/>
    <linearGradient id="linearGradient36943" x1="-22.838" x2="-23.699" y1="56.188" y2="44.126" gradientTransform="matrix(.2485 0 0 1.0397 736.01 -282.24)" gradientUnits="userSpaceOnUse" xlink:href="#linearGradient3958"/>
    <linearGradient id="linearGradient36955" x1="697.9" x2="697.9" y1="-103.77" y2="-102.78" gradientTransform="translate(20,-100)" gradientUnits="userSpaceOnUse" xlink:href="#linearGradient3291"/>
    <linearGradient id="linearGradient39161" x1="809.74" x2="792.25" y1="-253.46" y2="-262.9" gradientTransform="translate(106,50)" gradientUnits="userSpaceOnUse">
      <stop offset="0"/>
      <stop stop-color="#fff" stop-opacity=".41509" offset=".33849"/>
      <stop stop-opacity=".30189" offset=".56414"/>
      <stop stop-color="#fff" stop-opacity=".31447" offset=".82566"/>
      <stop offset="1"/>
    </linearGradient>
    <linearGradient id="linearGradient39163" x1="805.64" x2="792.16" y1="-253.11" y2="-252.73" gradientTransform="translate(106,50)" gradientUnits="userSpaceOnUse">
      <stop offset="0"/>
      <stop stop-color="#fff" offset=".5"/>
      <stop offset="1"/>
    </linearGradient>
    <linearGradient id="linearGradient39165" x1="6.1474" x2="6.1474" y1="12.682" y2="11.639" gradientTransform="matrix(.48341 0 0 .48341 905.33 -217.79)" gradientUnits="userSpaceOnUse" xlink:href="#linearGradient3958"/>
    <linearGradient id="linearGradient39167" x1="6.1474" x2="6.1474" y1="12.682" y2="11.639" gradientTransform="matrix(.48341 0 0 .48341 897.98 -217.79)" gradientUnits="userSpaceOnUse" xlink:href="#linearGradient3958"/>
    <linearGradient id="linearGradient39169" x1="-26.169" x2="-26.169" y1="-307.71" y2="-308.17" gradientTransform="matrix(.48341 0 0 .48341 917.31 -54.397)" gradientUnits="userSpaceOnUse" xlink:href="#linearGradient3291"/>
    <linearGradient id="linearGradient39171" x1="-12.406" x2="-12.257" y1="-386.34" y2="-382.93" gradientTransform="translate(40,420)" gradientUnits="userSpaceOnUse" xlink:href="#linearGradient3974"/>
    <linearGradient id="linearGradient39173" x1="19.898" x2="19.898" y1="16.828" y2="19.608" gradientTransform="matrix(.48341 0 0 .48341 897.98 -219.72)" gradientUnits="userSpaceOnUse" xlink:href="#linearGradient3291"/>
    <radialGradient id="radialGradient39175" cx="803.36" cy="-254.92" r="3.6883" gradientTransform="matrix(.84748 -1.2783e-5 .00010736 7.1161 228.55 1617.8)" gradientUnits="userSpaceOnUse" xlink:href="#linearGradient3974"/>
    <linearGradient id="linearGradient39177" x1="-20.971" x2="-19.5" y1="-412.84" y2="-412.84" gradientUnits="userSpaceOnUse">
      <stop stop-color="#fff" stop-opacity="0" offset="0"/>
      <stop stop-color="#fff" offset=".5"/>
      <stop stop-color="#fff" stop-opacity="0" offset="1"/>
    </linearGradient>
    <linearGradient id="linearGradient39179" x1="12.5" x2="18.219" y1="5.5156" y2="5.5156" gradientTransform="matrix(.31473 0 0 4.554 903.22 -191.73)" gradientUnits="userSpaceOnUse" xlink:href="#linearGradient4039-0"/>
  </defs>
  <g transform="matrix(8.0314 0 0 8.0314 -1.1305 -3.2899)">
    <g fill-opacity=".2" stroke="#000" stroke-linecap="round" stroke-linejoin="bevel" stroke-opacity=".2">
      <path d="m3.5586 39.295c-0.14356-0.17417-0.46248-0.74685-1.2142-2.1803-0.32221-0.61443-0.34857-0.64884-0.53571-0.69923-0.26526-0.071428-0.47613-0.25884-0.58465-0.51963-0.083148-0.19981-0.089169-0.46124-0.080782-3.5076l0.00906-3.2917 0.88386-3.3573c1.4183-5.3872 1.3111-4.9216 1.3211-5.7429 0.00954-0.78654 0.1082-1.1875 0.35577-1.446l0.12746-0.13303v-14.315l-0.78672-0.24667-0.013624-1.1801-0.013624-1.1801h34.559l0.03176 0.26647c0.01747 0.14656 0.02482 0.67759 0.01634 1.1801l-0.01542 0.91361-0.78672 0.25286v14.366l0.11222 0.0501c0.27334 0.12203 0.49685 0.87524 0.49685 1.6744 0 0.61682 0.02896 0.73993 1.342 5.7043l0.89124 3.3696v3.2947c0 3.5942 0.0096 3.4721-0.29108 3.6859-0.07719 0.05488-0.23214 0.12724-0.34434 0.16079-0.20268 0.06061-0.20766 0.06828-0.77368 1.1901-0.66266 1.3134-0.91583 1.7273-1.0832 1.7711-0.06527 0.01707-7.6233 0.047-16.796 0.06652l-16.677 0.03549z" stop-color="#000000" stroke-width=".62255" style="font-variation-settings:normal;paint-order:stroke fill markers"/>
      <path d="m3.4185 39.155c-0.14356-0.17417-0.46248-0.74685-1.2142-2.1803-0.32221-0.61443-0.34857-0.64884-0.53571-0.69923-0.26526-0.071428-0.47613-0.25884-0.58465-0.51963-0.083148-0.19981-0.089169-0.46124-0.080782-3.5076l0.00906-3.2917 0.88386-3.3573c1.4183-5.3872 1.3111-4.9216 1.3211-5.7429 0.00954-0.78654 0.1082-1.1875 0.35577-1.446l0.12746-0.13303v-14.315l-0.78672-0.24667-0.013624-1.1801-0.013624-1.1801h34.559l0.03176 0.26647c0.01747 0.14656 0.02482 0.67759 0.01634 1.1801l-0.01542 0.91361-0.78672 0.25286v14.366l0.11222 0.0501c0.27334 0.12203 0.49685 0.87524 0.49685 1.6744 0 0.61682 0.02896 0.73993 1.342 5.7043l0.89124 3.3696v3.2947c0 3.5942 0.0096 3.4721-0.29108 3.6859-0.07719 0.05488-0.23214 0.12724-0.34434 0.16079-0.20268 0.06061-0.20766 0.06828-0.77368 1.1901-0.66266 1.3134-0.91583 1.7273-1.0832 1.7711-0.06527 0.01707-7.6233 0.047-16.796 0.06652l-16.677 0.03549z" stop-color="#000000" stroke-width=".62255" style="font-variation-settings:normal;paint-order:stroke fill markers"/>
      <path transform="matrix(.12451 0 0 .12451 .14076 .40962)" d="m23.825 308.68c-1.153-1.3988-3.7144-5.9983-9.7516-17.511-2.5878-4.9348-2.7995-5.2111-4.3025-5.6158-2.1305-0.57367-3.824-2.0788-4.6956-4.1734-0.6678-1.6048-0.71616-3.7044-0.64879-28.171l0.072789-26.437 7.0987-26.964c11.391-43.267 10.53-39.527 10.61-46.123 0.07658-6.3171 0.86901-9.5377 2.8574-11.613l1.0236-1.0685v-114.97l-6.3185-1.9811-0.21885-18.955h277.56l0.25509 2.1401c0.1403 1.1771 0.19936 5.442 0.13124 9.4777l-0.12384 7.3376-6.3185 2.0309v115.38l0.90132 0.4024c2.1953 0.98011 3.9904 7.0294 3.9904 13.448 0 4.954 0.23262 5.9427 10.778 45.814l7.158 27.063v26.461c0 28.866 0.0774 27.886-2.3378 29.603-0.61994 0.44078-1.8644 1.0219-2.7655 1.2914-1.6278 0.48683-1.6678 0.54836-6.2138 9.5581-5.3222 10.548-7.3554 13.873-8.6998 14.224-0.52418 0.13707-61.226 0.37749-134.89 0.53426l-133.94 0.28504z" stop-color="#000000" stroke-width="5" style="font-variation-settings:normal;paint-order:stroke fill markers"/>
    </g>
    <g transform="translate(-700,240)">
      <path transform="matrix(.98259 0 0 .98259 267.92 15.483)" d="m443.16-258.78c-0.4155 0-0.75 0.3345-0.75 0.75v0.96875c0 0.4155 0.3345 0.75 0.75 0.75h0.125v14.844l-0.1875 0.0312s-0.24765 0.30096-0.34375 0.96875c-0.096 0.66779 0.0937 0.9375 0.0937 0.9375l-2.3438 8.9062 0.0312 0.6875c-0.04 0.10079-0.0625 0.19683-0.0625 0.3125v5.4375c0 0.46269 0.34981 0.8125 0.8125 0.8125h0.0312l1.1562 2.25c0.26517 0.44059 0.34981 0.8125 0.8125 0.8125h33.562c0.46269 0 0.57858-0.37191 0.84375-0.8125l1.125-2.25h0.0312c0.46269 0 0.84375-0.34981 0.84375-0.8125v-5.4375c0-0.11567-0.0195-0.21171-0.0625-0.3125l0.0312-0.6875-2.3438-8.9062s0.1586-0.26971 0.0625-0.9375c-0.096-0.66779-0.34375-0.96875-0.34375-0.96875l-0.3125-0.0312v-14.844h0.15625c0.4155 0 0.75-0.3345 0.75-0.75v-0.96875c0-0.4155-0.3345-0.75-0.75-0.75z"/>
      <path d="m703.24-221.94c-1e-5 0-0.24334 0.29572-0.33776 0.95189-0.0943 0.65616 0.0921 0.92118 0.0921 0.92118l-2.303 8.7512 0.0306 0.67553c-0.0414 0.0983-0.0614 0.1934-0.0614 0.30706v5.3428c0 0.45464 0.34372 0.79836 0.79836 0.79836h36.909c0.45463 0 0.82906-0.34372 0.82906-0.79836v-5.3428c0-0.11366-0.02-0.20881-0.0614-0.30706l0.0306-0.67553-2.3029-8.7512s0.15584-0.26502 0.0614-0.92118c-0.0943-0.65617-0.33777-0.95189-0.33777-0.95189h-33.347zm0.89047 1.9345h31.566l2.1801 8.8433h-35.926zm-2.6714 8.8433c-0.17264 0-0.32871 0.0632-0.46059 0.15353 0.12608-0.0936 0.2901-0.15353 0.46059-0.15353zm36.909 0c0.17048 0 0.32683 0.0598 0.46059 0.15353-0.13189-0.0904-0.28796-0.15353-0.46059-0.15353z" fill="#006"/>
      <path d="m703.3-238.98c-0.40827 0-0.73695 0.32868-0.73695 0.73695v0.95188c0 0.40827 0.32868 0.73695 0.73695 0.73695h0.12282v14.585l-0.18424 0.0307s-0.24333 0.29572-0.33776 0.95188c-0.0943 0.65616 0.0921 0.92118 0.0921 0.92118l-2.303 8.7512 0.0307 0.67553c-0.0393 0.099-0.0614 0.1934-0.0614 0.30706v5.3428c0 0.45463 0.34372 0.79835 0.79836 0.79835h0.0307l1.1361 2.2108c0.26055 0.43292 0.34372 0.79836 0.79835 0.79836h32.978c0.45463 0 0.56851-0.36544 0.82906-0.79836l1.1054-2.2108h0.0307c0.45464 0 0.82906-0.34372 0.82906-0.79835v-5.3428c0-0.11366-0.0192-0.20802-0.0614-0.30706l0.0307-0.67553-2.303-8.7512s0.15584-0.26502 0.0614-0.92118c-0.0943-0.65616-0.33776-0.95188-0.33776-0.95188l-0.30706-0.0307v-14.585h0.15353c0.40826 0 0.73694-0.32868 0.73694-0.73695v-0.95188c0-0.40827-0.32868-0.73695-0.73694-0.73695z" fill="#669"/>
      <path d="m703.24-221.94s-0.24334 0.29572-0.33776 0.95189c-0.0943 0.65616 0.0921 0.92118 0.0921 0.92118h33.869s0.15584-0.26502 0.0614-0.92118c-0.0943-0.65617-0.33777-0.95189-0.33777-0.95189z" fill="url(#linearGradient36843)" opacity=".3"/>
      <path d="m703.44-237.73v15.752h32.846v-15.752z" fill="#006" opacity=".3"/>
      <path d="m701.88-210.4h36.066v3.5952h-36.066z" fill="#e6e6e6"/>
      <rect x="701.88" y="-210.85" width="36.066" height=".39947" fill="url(#linearGradient36845)"/>
      <path d="m706.8-210.86v4.057h0.35096v-4.057zm5.1942 0v4.057h0.31586v-4.057zm5.1591 0v4.057h0.31587v-4.057zm5.1591 0v4.057h0.35096v-4.057zm5.1942 0v4.057h0.31586v-4.057zm5.1591 0v4.057h0.31587v-4.057z"/>
      <path d="m704.42-220.01h30.996l2.535 9.1579h-36.066z" fill="#fff"/>
      <path d="m704.12-220-0.0937 0.4375h31.781l-0.0937-0.4375h-31.594z" fill="url(#linearGradient36847)" opacity=".39716"/>
      <path d="m704.13-220.01h31.574l2.2461 9.1579h-36.066z" fill="url(#linearGradient36849)" opacity=".39716"/>
      <path d="m708.42-220.03-1.6118 9.1727h0.35096l1.5686-9.1727zm4.5555 0-0.97311 9.1727h0.31586l0.93427-9.1727zm4.5247 0-0.33875 9.1727h0.31587l0.29991-9.1727zm4.5247 0 0.29561 9.1727h0.35096l-0.33875-9.1727zm4.5555 0 0.93427 9.1727h0.31586l-0.97311-9.1727zm4.5247 0 1.5686 9.1727h0.31587l-1.6075-9.1727z"/>
      <path d="m701.88-210.4h36.066v3.5952h-36.066z" fill="url(#linearGradient36851)"/>
      <path d="m701.46-204.25 1.1668 2.2722c0.26056 0.43292 0.34372 0.79835 0.79836 0.79835h32.978c0.45464 0 0.56851-0.36543 0.82907-0.79835l1.1361-2.2722z" fill="#006" opacity=".3"/>
      <path d="m701.46-211.16c-0.45464 0-0.79836 0.37442-0.79836 0.82906v5.3428c0 0.45464 0.34372 0.79836 0.79836 0.79836h36.909c0.45463 0 0.82906-0.34372 0.82906-0.79836v-5.3428c0-0.45464-0.37443-0.82906-0.82906-0.82906h-0.4913l0.0614 0.30705v4.0532h-36.049v-4.0532l0.0614-0.30705z" fill="url(#linearGradient36853)"/>
      <path d="m702.99-220.06-2.3029 8.7512 0.0307 0.67553c0.12425-0.29474 0.39598-0.522 0.73695-0.522h0.49129l2.1801-8.8433h31.566l2.1801 8.8433h0.4913c0.34097 0 0.6434 0.22726 0.76765 0.522l0.0306-0.67553-2.3029-8.7512h-33.869z" fill="url(#linearGradient36855)"/>
      <path d="m700.75-211.59-0.0614 0.27636 0.0307 0.67553c0.12425-0.29474 0.39598-0.522 0.73695-0.522h0.49129c-0.47182-0.0561-1.0015-0.0428-1.1975-0.42989zm37.124 0.42989h0.4913c0.34096 0 0.6434 0.22726 0.76764 0.522l0.0307-0.67553-0.0614-0.27636c-0.2057 0.26553-0.74705 0.32965-1.2282 0.42989z" fill="url(#linearGradient36857)" opacity=".5"/>
      <path d="m701.95-206.53-0.0614-0.30706h36.049l-0.0614 0.30706h-35.926z" fill="url(#linearGradient36859)"/>
      <path d="m703.44-222.18-0.10748 0.20702h33.061l-0.10748-0.20702z" fill="url(#linearGradient36861)"/>
      <path d="m704.16-221.94s-0.27404 0.29572-0.36847 0.95189c-0.0943 0.65616 0.0614 0.92118 0.0614 0.92118h0.23666s-0.22088-0.26502-0.12655-0.92118c0.0944-0.65617 0.34676-0.95189 0.34676-0.95189zm31.355 0s0.25232 0.29572 0.34675 0.95189c0.0943 0.65616-0.12655 0.92118-0.12655 0.92118h0.23666s0.15574-0.26502 0.0614-0.92118c-0.0944-0.65617-0.36847-0.95189-0.36847-0.95189z" fill="url(#linearGradient36863)" opacity=".3"/>
      <path d="m703.44-236.77v1.0741h32.846v-1.0741z" fill="url(#linearGradient36865)"/>
      <rect x="702.56" y="-238.99" width="34.61" height="2.4318" rx=".091757" ry=".091757" fill="#669"/>
      <rect x="702.56" y="-238.99" width="34.61" height="2.4318" rx=".091757" ry=".091757" fill="url(#linearGradient36867)"/>
      <path d="m704.32-220-2.4489 9.1562h0.87554l2.1251-9.1562z" fill="url(#linearGradient36849)" opacity=".6"/>
      <path d="m703.89-220.03-2.2461 8.7971c0.15646 0.15479 0.3122 0.31047 0.23853 0.75292l2.3841-8.9561c0.0684-0.31431-0.15815-0.45163-0.37647-0.59389z" fill="url(#linearGradient36871)"/>
      <g>
        <path transform="matrix(.98259 0 0 .98259 267.92 15.483)" d="m447.03-240.78-0.0312 0.0625h-0.0625l-0.3125 1.125-0.96875 4.8438-0.34375 1.625h0.0625v0.0312h2.9375v-0.0312h0.0625l1.0938-6.4688-0.3125-1.125h-0.0937v-0.0625h-2.0312zm5.4688 0-0.0312 0.0625h-0.0625l-0.3125 1.125-0.8125 6.4688h0.0625v0.0312h2.9062v-0.0312h0.0625l0.625-6.4688-0.3125-1.125h-0.0937l-0.0312-0.0625h-2zm8.1562 0-0.0312 0.0625h-0.0937l-0.28125 1.125 0.0625 6.4688h0.0625v0.0312h2.9062v-0.0312h0.0625l-0.28125-6.4688-0.3125-1.125h-0.0625l-0.0312-0.0625h-2zm5.2812 0-0.0312 0.0625h-0.0937l-0.28125 1.125 0.5625 6.4688h0.0625v0.0312h2.9062v-0.0312h0.0625l-0.78125-6.4688-0.28125-1.125h-0.0937l-0.0312-0.0625h-2zm5.25 0-0.0312 0.0625h-0.0937l-0.28125 1.125 1 6.4688h0.0625v0.0312h2.9062v-0.0312h0.0625l-0.3125-1.625-0.90625-4.8438-0.28125-1.125h-0.0937l-0.0312-0.0625h-2z"/>
        <path d="m712.54-221.11-0.0307 0.0614h-0.0614l-0.30706 1.1054-0.79835 6.3561h0.0614v0.0307h2.8556v-0.0307h0.0614l0.61412-6.3561-0.30706-1.1054h-0.0921l-0.0307-0.0614z"/>
        <path d="m720.56-221.11-0.0307 0.0614h-0.0921l-0.27635 1.1054 0.0614 6.3561h0.0614v0.0307h2.8557v-0.0307h0.0614l-0.27636-6.3561-0.30706-1.1054h-0.0614l-0.0307-0.0614z"/>
        <path d="m725.75-221.11-0.0306 0.0614h-0.0921l-0.27636 1.1054 0.55271 6.3561h0.0614v0.0307h2.8557v-0.0307h0.0614l-0.76765-6.3561-0.27635-1.1054h-0.0921l-0.0307-0.0614z"/>
        <path d="m730.91-221.11-0.0307 0.0614h-0.0921l-0.27635 1.1054 0.98259 6.3561h0.0614v0.0307h2.8556v-0.0307h0.0614l-0.30706-1.5967-0.89048-4.7594-0.27635-1.1054h-0.0921l-0.0307-0.0614z"/>
        <path d="m707.17-221.11-0.0307 0.0614h-0.0614l-0.30706 1.1054-0.95189 4.7594-0.33776 1.5967h0.0614v0.0307h2.8864v-0.0307h0.0614l1.0747-6.3561-0.30706-1.1054h-0.0921v-0.0614z"/>
      </g>
      <g transform="matrix(1.1231 0 0 1.1231 742.41 -251.45)">
        <path d="m-32.589 32.293h2.084l0.28744 1.4372h-2.6588z"/>
        <path d="m-32.546 32.376h1.9995l0.27581 1.3789h-2.551z" fill="url(#linearGradient36873)"/>
        <path d="m-32.49 32.239h1.8863l0.0494 0.14372h-1.9851z" fill="url(#linearGradient36875)"/>
      </g>
      <g transform="matrix(1.1231 0 0 1.1231 748.26 -251.45)">
        <path d="m-32.589 32.293h2.084l0.28744 1.4372h-2.6588z"/>
        <path d="m-32.546 32.376h1.9995l0.27581 1.3789h-2.551z" fill="url(#linearGradient36873)"/>
        <path d="m-32.49 32.239h1.8863l0.0494 0.14372h-1.9851z" fill="url(#linearGradient36875)"/>
      </g>
      <g transform="matrix(1.1231 0 0 1.1231 757.13 -251.45)">
        <path d="m-32.589 32.293h2.084l0.28744 1.4372h-2.6588z"/>
        <path d="m-32.546 32.376h1.9995l0.27581 1.3789h-2.551z" fill="url(#linearGradient36873)"/>
        <path d="m-32.49 32.239h1.8863l0.0494 0.14372h-1.9851z" fill="url(#linearGradient36875)"/>
      </g>
      <g transform="matrix(1.1231 0 0 1.1231 762.82 -251.45)">
        <path d="m-32.589 32.293h2.084l0.28744 1.4372h-2.6588z"/>
        <path d="m-32.546 32.376h1.9995l0.27581 1.3789h-2.551z" fill="url(#linearGradient36873)"/>
        <path d="m-32.49 32.239h1.8863l0.0494 0.14372h-1.9851z" fill="url(#linearGradient36875)"/>
      </g>
      <g transform="matrix(1.1231 0 0 1.1231 768.41 -251.45)">
        <path d="m-32.589 32.293h2.084l0.28744 1.4372h-2.6588z"/>
        <path d="m-32.546 32.376h1.9995l0.27581 1.3789h-2.551z" fill="url(#linearGradient36873)"/>
        <path d="m-32.49 32.239h1.8863l0.0494 0.14372h-1.9851z" fill="url(#linearGradient36875)"/>
      </g>
      <path d="m709.26-221.05 0.30706 1.1054-1.0747 6.3561h-0.0614v0.0307h-2.825l0.42988 0.73694h0.0614v0.0307h2.8864v-0.0307h0.0614l0.89047-7.2466-0.30706-0.92118h-0.0921v-0.0614h-0.27635zm5.3735 0 0.30706 1.1054-0.61411 6.3561h-0.0614v0.0307h-2.825l0.46059 0.73694h0.0614v0.0307h2.8556v-0.0307h0.0614l0.42989-7.2466-0.30706-0.92118h-0.0921l-0.0307-0.0614h-0.24565zm7.9836 0 0.30706 1.1054 0.27635 6.3561h-0.0614v0.0307h-2.8557l0.4913 0.73694h0.0614v0.0307h2.8556v-0.0307h0.0614l-0.46059-7.2466-0.30706-0.92118h-0.0614l-0.0307-0.0614h-0.27636zm-2.3337 7.4923v-0.0307h-0.0306zm7.5537-7.4923 0.27635 1.1054 0.76765 6.3561h-0.0614v0.0307h-2.825l0.46059 0.73694h0.0614v0.0307h2.8557v-0.0307h0.0614l-0.95188-7.2466-0.27636-0.92118h-0.0921l-0.0307-0.0614h-0.24565zm5.1586 0 0.27636 1.1054 0.89047 4.7594 0.30706 1.5967h-0.0614v0.0307h-2.825l0.46059 0.73694h0.0614v0.0307h2.8556v-0.0307h0.0614l-0.30706-1.7502-1.0747-5.4964-0.27636-0.92118h-0.0921l-0.0306-0.0614h-0.24565z" fill="url(#linearGradient36893)" opacity=".26596"/>
      <path d="m707.17-221.11-1.259 5.8648h2.1187l1.1361-5.8648zm5.3735 0-0.76765 5.8648h2.1187l0.61412-5.8648zm8.0143 0 0.0921 5.8648h2.1187l-0.24565-5.8648h-1.9652zm5.1893 0 0.58342 5.8648h2.1187l-0.73694-5.8648zm5.1586 0 1.0133 5.8648h2.1187l-1.1668-5.8648z" fill="url(#linearGradient36895)"/>
      <path d="m701.89-206.82-6e-3 -3.6066 0.10402-0.41359h0.80924l-0.0667 0.41672 0.0659 8e-3 -7.3e-4 3.5956z" fill="url(#linearGradient36897)" opacity=".2"/>
      <g>
        <path d="m701.87-210.47v3.6679h0.31587v-3.6679zm35.742 0v3.6679h0.35096v-3.6679z" opacity=".5"/>
        <path d="m701.98-210.87-0.10938 0.40528h0.31587l0.10746-0.40528zm35.713 0 0.10725 0.40528h0.16346l-0.10938-0.40528z" opacity=".2"/>
        <path d="m705.19-226.52v1.3125h1.6562v-1.3125z"/>
        <path d="m707.19-226.52v1.3125h1.6562v-1.3125z"/>
        <path d="m727.19-226.52v1.3125h1.6562v-1.3125z"/>
        <path d="m705.19-224.52v1.3125h1.6562v-1.3125z"/>
        <path d="m707.19-224.52v1.3125h1.6562v-1.3125z"/>
        <path d="m705.19-228.52v1.3125h1.6562v-1.3125z"/>
      </g>
      <g fill="#b7c8b7">
        <path d="m705.16-226.59v1.3125h1.6562v-1.3125z"/>
        <path d="m707.16-226.59v1.3125h1.6562v-1.3125z"/>
        <path d="m727.16-226.59v1.3125h1.6562v-1.3125z"/>
        <path d="m705.16-224.59v1.3125h1.6562v-1.3125z"/>
        <path d="m707.16-224.59v1.3125h1.6562v-1.3125z"/>
        <path d="m705.16-228.59v1.3125h1.6562v-1.3125z"/>
      </g>
      <g fill="#dbe3db">
        <path d="m705.16-226.59v1.3125h0.0625v-1.25h1.5938v-0.0625z"/>
        <path d="m707.16-226.59v1.3125h0.0625v-1.25h1.5938v-0.0625z"/>
        <path d="m727.16-226.59v1.3125h0.0625v-1.25h1.5938v-0.0625z"/>
        <path d="m705.16-224.59v1.3125h0.0625v-1.25h1.5938v-0.0625z"/>
        <path d="m707.16-224.59v1.3125h0.0625v-1.25h1.5938v-0.0625z"/>
        <path d="m705.16-228.59v1.3125h0.0625v-1.25h1.5938v-0.0625z"/>
      </g>
      <g fill="#6c5340">
        <path d="m706.75-226.59v1.25h-1.5938v0.0625h1.6562v-1.3125z"/>
        <path d="m708.75-226.59v1.25h-1.5938v0.0625h1.6562v-1.3125z"/>
        <path d="m728.75-226.59v1.25h-1.5938v0.0625h1.6562v-1.3125z"/>
        <path d="m706.75-224.59v1.25h-1.5938v0.0625h1.6562v-1.3125z"/>
        <path d="m708.75-224.59v1.25h-1.5938v0.0625h1.6562v-1.3125z"/>
        <path d="m706.75-228.59v1.25h-1.5938v0.0625h1.6562v-1.3125z"/>
      </g>
      <path d="m727.05-233.88v7.0307h7.9862v-7.0307z" fill="#374837"/>
      <path transform="matrix(-.2576 0 0 1.0328 829 -116.67)" d="m378.52-112.04v2.1562h-0.21875v-2.125c-0.0802 0.0333-0.16874 0.0613-0.25 0.0937v2.0312h-0.25v-1.9375c-0.0823 0.0316-0.16672 0.063-0.25 0.0937v1.8438h-0.21875v-1.75c-0.0842 0.03-0.16482 0.0646-0.25 0.0937v1.6562h-0.3125v-1.5625c-0.0829 0.0271-0.16622 0.0674-0.25 0.0937v1.4688h-0.21875v-1.4062c-0.0817 0.0248-0.16743 0.0384-0.25 0.0625v1.3438h-0.25v-1.25c-0.0834 0.0234-0.16572 0.0398-0.25 0.0625v1.1875h-0.21875v-1.125c-0.0827 0.0215-0.1665 0.0417-0.25 0.0625v1.0625h-0.3125v-1c-0.0845 0.02-0.16475 0.0431-0.25 0.0625v0.9375h-0.21875v-0.875c-0.0859 0.0188-0.1633 0.0443-0.25 0.0625v0.8125h-0.25v-0.78125c-0.0818 0.0165-0.16754 0.0466-0.25 0.0625v0.71875h-0.21875v-0.6875c-0.0813 0.0151-0.16801 0.0167-0.25 0.0312v0.65625h-0.3125v-0.59375c-0.0828 0.0139-0.16657 0.0178-0.25 0.0312v0.5625h-0.21875v-0.53125c-0.0815 0.0126-0.1679 0.0192-0.25 0.0312v0.5h-0.25v-0.46875c-0.0827 0.0116-0.16672 0.0202-0.25 0.0312v0.4375h-0.21875v-0.40625c-0.0838 0.0107-0.16563 0.0211-0.25 0.0312v0.375h-0.3125v-0.34375c-0.0838 9e-3 -0.1656 0.0223-0.25 0.0312v0.3125h-0.21875v-0.28125c-0.0833 8e-3 -0.16613 0.0233-0.25 0.0312v0.25h-0.25v-0.21875c-0.0844 7e-3 -0.16507 0.0241-0.25 0.0312v0.1875h-0.21875v-0.1875c-0.0854 7e-3 -0.16408 0.025-0.25 0.0312v0.15625h-0.3125v-0.125c-0.081 5e-3 -0.16852 0.0263-0.25 0.0312v0.0937h-0.21875v-0.0937c-0.0814 5e-3 -0.16817-4e-3 -0.25 0v0.0937h-0.25v-0.0625c-0.0823 4e-3 -0.16727-4e-3 -0.25 0v0.0625h-0.21875v-0.0625c-0.0836 3e-3 -0.16592 0.0284-0.25 0.0312v0.0312h-0.3125v-0.0312c-0.083 2e-3 -0.16661-2e-3 -0.25 0v0.0312h-0.21875v-0.0312c-0.0838 2e-3 -0.16581-1e-3 -0.25 0v0.0312h-0.25v-0.0312c-0.0846 9.8e-4 -0.16497-6.3e-4 -0.25 0v0.0312h-0.21875v-0.0312c-0.0854 3.3e-4 -0.16418 2e-5 -0.25 0 0.0532 4e-3 0.10394 0.0238 0.15625 0.0312v0.15625h1.8438c0.0836 7e-3 0.16657 0.0239 0.25 0.0312v-0.0312h0.21875v0.0312c0.0833 7e-3 0.16692 0.0237 0.25 0.0312v-0.0625h0.25v0.0937c0.0819 7e-3 0.16828-8e-3 0.25 0v-0.0937h0.21875v0.125c0.0862 8e-3 0.16413 0.023 0.25 0.0312v-0.15625h0.3125v0.1875c0.0855 8e-3 0.16483 0.0226 0.25 0.0312v-0.21875h0.21875v0.25c0.0849 9e-3 0.16549 0.0223 0.25 0.0312v-0.28125h0.25v0.3125c0.0841 9e-3 0.16627 0.022 0.25 0.0312v-0.34375h0.21875v0.34375c0.0834 9e-3 0.16705 0.0216 0.25 0.0312v-0.375h0.3125v0.40625c0.0824 0.01 0.16809 0.0211 0.25 0.0312v-0.4375h0.21875v0.46875c0.0815 0.0103 0.16902 0.0207 0.25 0.0312v-0.5h0.25v0.53125c0.0833 0.0112 0.16724 0.0198 0.25 0.0312v-0.5625h0.21875v0.59375c0.0822 0.0117 0.16839 0.0193 0.25 0.0312v-0.625h0.3125v0.6875c0.0808 0.0123 0.16987 0.0186 0.25 0.0312v-0.71875h0.21875v0.75c0.0858 0.014 0.16507 0.0169 0.25 0.0312v-0.78125h0.25v0.84375c0.0841 0.0147 0.16681 0.0161 0.25 0.0312v-0.875h0.21875v0.90625c0.0824 0.0155 0.16852 0.0153 0.25 0.0312v-0.9375h0.3125v1.0312c0.0827 0.017 0.16836 0.0138 0.25 0.0312v-1.0625h0.21875v1.125c0.0829 0.0184 0.16831 0.0435 0.25 0.0625v-1.1875h0.25v1.2188c0.0813 0.0197 0.16991 0.0422 0.25 0.0625v-1.2812h0.21875v1.3438c0.0891 0.0235 0.16252 0.0695 0.25 0.0937v-1.4375h0.3125v1.5312c0.0825 0.0244 0.16915 0.0373 0.25 0.0625v-1.5938h0.21875v1.6562c0.0819-5e-3 0.16782 4e-3 0.25 0v-1.6562h0.25v1.625c0.0825-4e-3 0.16729 4e-3 0.25 0v-1.625h0.21875v1.625c0.0834-4e-3 0.16648-0.0279 0.25-0.0312v-1.5938h0.3125v1.5938c0.0837-3e-3 0.16628-0.0281 0.25-0.0312v-1.5625h0.21875v1.5625c0.0833-3e-3 0.16675 3e-3 0.25 0v-1.5625h0.25v1.5312c0.0832-3e-3 0.16693 3e-3 0.25 0v-1.5312h0.21875v1.5312c0.0853-4e-3 0.16486-0.0275 0.25-0.0312v-1.5h0.3125v1.5c0.0848-4e-3 0.16549-0.0269 0.25-0.0312v-1.4688h0.21875v1.4688c0.0842-5e-3 0.16621-0.0262 0.25-0.0312v-1.4375h0.25v1.4375c0.0834-5e-3 0.16715-0.0254 0.25-0.0312v-1.4062h0.21875v1.4062c0.0824-6e-3 0.1682-0.0244 0.25-0.0312v-1.375h0.3125v1.375c0.0856-8e-3 0.16514-0.0225 0.25-0.0312v-1.3438h0.21875v1.3125c0.0841-0.01 0.16675-0.021 0.25-0.0312v-1.2812h0.25v1.25c0.0823-0.0112 0.16869-0.0192 0.25-0.0312v-1.2188h0.21875v1.1875c0.0855-0.0138 0.16578-0.0475 0.25-0.0625v-1.125h0.3125v1.0938c0.0826-0.0165 0.16879-0.0447 0.25-0.0625v-1.0312h0.21875v1c0.0901-0.0214 0.16188-0.0706 0.25-0.0937v-0.90625h0.25v0.84375c0.0834-0.0242 0.16864-0.0364 0.25-0.0625v-0.78125h0.21875v0.71875c0.0853-0.0298 0.16723-0.0616 0.25-0.0937v-0.625h0.3125v0.46875c0.0848-0.0379 0.16836-0.0842 0.25-0.125v-0.34375h0.21875v0.21875c8e-3 -4e-3 0.0234 4e-3 0.0312 0 0.0775 4e-3 0.14284 0.0262 0.21875 0.0312v-0.25h0.25v0.28125c0.0845 7e-3 0.16757 0.0235 0.25 0.0312v-0.3125h0.21875v0.3125c0.0806 9e-3 0.17152 0.0216 0.25 0.0312v-0.34375h0.3125v0.40625c0.0885 0.0128 0.16452 0.017 0.25 0.0312v-0.4375h0.21875v0.46875c0.0847 0.0158 0.16848 0.0451 0.25 0.0625v-0.53125h0.25v0.5625c0.0857 0.0206 0.16822 0.0401 0.25 0.0625v-0.625h0.21875v0.71875c0.0845 0.0263 0.1702 0.0339 0.25 0.0625v-0.78125h0.3125v0.875c0.0862 0.0367 0.17041 0.0852 0.25 0.125v-1h0.21875v1.125c0.0901 0.0524 0.17008 0.0991 0.25 0.15625v-1.2812h0.25v1.3125c0.0883-0.0133 0.16522-0.0163 0.25-0.0312v-1.2812h0.21875v1.2188c0.0816-0.0165 0.17187-0.0131 0.25-0.0312v-1.1875h0.3125v1.125c0.0922-0.0253 0.16308-0.066 0.25-0.0937v-1.0312h0.21875v0.9375c0.0822-0.03 0.17297-0.0613 0.25-0.0937v-0.84375h0.25v0.75c0.0939-0.0459 0.1648-0.10628 0.25-0.15625v-0.59375h0.21875v0.46875c0.0856-0.0587 0.17456-0.12403 0.25-0.1875v-0.28125h0.1875v-0.15625h-0.1875v-0.5c-0.0748-0.0695-0.1667-0.12271-0.25-0.1875v0.6875h-0.21875v-0.84375c-0.0879-0.0587-0.15317-0.13377-0.25-0.1875v1.0312h-0.25v-1.125c-0.0784-0.0378-0.16603-0.0903-0.25-0.125v1.25h-0.21875v-1.3438c-0.0817-0.0294-0.1632-0.0671-0.25-0.0937v1.4375h-0.3125v-1.5c-0.0835-0.0211-0.16215-0.0438-0.25-0.0625v1.5625h-0.21875v-1.625c-0.0567-0.0102-0.0978-0.022-0.15625-0.0312-0.0298 0.0121-0.0638 0.0192-0.0937 0.0312v1.625h-0.25v-1.5312c-0.0813 0.0318-0.1681 0.0629-0.25 0.0937v1.4375h-0.21875v-1.3438c-0.0825 0.0298-0.16669 0.0653-0.25 0.0937v1.25h-0.3125v-1.1562c-0.0814 0.0257-0.16759 0.0384-0.25 0.0625v1.0938h-0.21875v-1.0312c-0.0862 0.0233-0.16259 0.0725-0.25 0.0937v0.9375h-0.25v-0.875c-0.0821 0.0176-0.16666 0.0157-0.25 0.0312v0.84375h-0.21875v-0.8125c-0.0834 0.0135-0.16521 0.0201-0.25 0.0312v0.78125h-0.3125v-0.75c-0.0841 8e-3 -0.16446 0.0257-0.25 0.0312v0.71875h-0.21875v-0.71875c-0.0829 3e-3 -0.16559 0.0304-0.25 0.0312v0.6875h-0.25v-0.6875c-0.0817-2e-3 -0.1668 4e-3 -0.25 0v0.6875h-0.21875v-0.71875c-0.074-5e-3 -0.1436 7e-3 -0.21875 0-0.0117-8e-3 -0.0195-0.0236-0.0312-0.0312v0.75h-0.3125v-0.90625c-0.0805-0.045-0.16721-0.0838-0.25-0.125v1.0312h-0.21875v-1.1562c-0.084-0.0375-0.1639-0.0909-0.25-0.125v1.2812h-0.25v-1.3438c-0.0829-0.0294-0.16541-0.0671-0.25-0.0937v1.4375h-0.21875v-1.5312c-0.0818-0.0232-0.16687-0.0416-0.25-0.0625v1.5938h-0.3125v-1.6562c-0.0837-0.0182-0.16516-0.0462-0.25-0.0625v1.7188h-0.21875v-1.75c-0.0828-0.0143-0.16626-0.0185-0.25-0.0312v1.7812h-0.25v-1.8125c-0.0821-0.011-0.16713-0.0215-0.25-0.0312v1.8438h-0.21875v-1.875c-0.0835-9e-3 -0.1659-0.0235-0.25-0.0312v1.9062h-0.3125v-1.9062c-0.0827-7e-3 -0.16686-0.0255-0.25-0.0312v1.9375h-0.21875v-1.9375c-0.0835-5e-3 -0.16615-0.0267-0.25-0.0312v1.9688h-0.25v-1.9688c-0.0841-4e-3 -0.16563-0.0276-0.25-0.0312v2h-0.21875v-2c-0.084-3e-3 -0.16591 3e-3 -0.25 0v2h-0.3125v-2.0312c-0.0842-3e-3 -0.16585 3e-3 -0.25 0v2.0312h-0.21875v-2.0625c-0.0841-3e-3 -0.16601 3e-3 -0.25 0v2.0625h-0.25v-2.0938c-0.0838-4e-3 -0.16642 4e-3 -0.25 0v2.0938h-0.21875v-2.0938c-0.0839-5e-3 -0.16645-0.0262-0.25-0.0312v2.125h-0.3125v-2.125c-0.083-6e-3 -0.16744-0.0246-0.25-0.0312zm16.562 2v0.28125c0.0438-0.0516 0.0864-0.10218 0.125-0.15625-0.0351-0.0477-0.0873-0.0788-0.125-0.125z" fill="#e7f700"/>
      <path transform="matrix(-.2576 0 0 1.0328 828.93 -116.67)" d="m378.38-112.19v2.1562h-0.21875v-2.125c-0.0802 0.0333-0.16874 0.0613-0.25 0.0937v2.0312h-0.25v-1.9375c-0.0823 0.0316-0.16672 0.063-0.25 0.0937v1.8438h-0.21875v-1.75c-0.0842 0.03-0.16482 0.0646-0.25 0.0937v1.6562h-0.3125v-1.5625c-0.0829 0.0271-0.16622 0.0674-0.25 0.0937v1.4688h-0.21875v-1.4062c-0.0817 0.0248-0.16743 0.0384-0.25 0.0625v1.3438h-0.25v-1.25c-0.0835 0.0234-0.16572 0.0398-0.25 0.0625v1.1875h-0.21875v-1.125c-0.0827 0.0215-0.1665 0.0417-0.25 0.0625v1.0625h-0.3125v-1c-0.0845 0.02-0.16475 0.0431-0.25 0.0625v0.9375h-0.21875v-0.875c-0.0859 0.0188-0.1633 0.0443-0.25 0.0625v0.8125h-0.25v-0.78125c-0.0818 0.0165-0.16754 0.0466-0.25 0.0625v0.71875h-0.21875v-0.6875c-0.0813 0.0151-0.16801 0.0167-0.25 0.0312v0.65625h-0.3125v-0.59375c-0.0828 0.0139-0.16657 0.0178-0.25 0.0312v0.5625h-0.21875v-0.53125c-0.0815 0.0126-0.1679 0.0192-0.25 0.0312v0.5h-0.25v-0.46875c-0.0827 0.0116-0.16672 0.0202-0.25 0.0312v0.4375h-0.21875v-0.40625c-0.0838 0.0107-0.16562 0.0211-0.25 0.0312v0.375h-0.3125v-0.34375c-0.0838 9e-3 -0.1656 0.0223-0.25 0.0312v0.3125h-0.21875v-0.28125c-0.0833 8e-3 -0.16613 0.0233-0.25 0.0312v0.25h-0.25v-0.21875c-0.0844 7e-3 -0.16507 0.0242-0.25 0.0312v0.1875h-0.21875v-0.1875c-0.0854 7e-3 -0.16408 0.025-0.25 0.0312v0.15625h-0.3125v-0.125c-0.081 5e-3 -0.16852 0.0263-0.25 0.0312v0.0937h-0.21875v-0.0937c-0.0814 5e-3 -0.16817-4e-3 -0.25 0v0.0937h-0.25v-0.0625c-0.0823 4e-3 -0.16727-4e-3 -0.25 0v0.0625h-0.21875v-0.0625c-0.0836 3e-3 -0.16592 0.0284-0.25 0.0312v0.0312h-0.3125v-0.0312c-0.083 2e-3 -0.16661-2e-3 -0.25 0v0.0312h-0.21875v-0.0312c-0.0838 2e-3 -0.16582-1e-3 -0.25 0v0.0312h-0.25v-0.0312c-0.0846 9.8e-4 -0.16497-6.3e-4 -0.25 0v0.0312h-0.21875v-0.0312c-0.0854 3.3e-4 -0.16418 2e-5 -0.25 0 0.0532 4e-3 0.10394 0.0238 0.15625 0.0312v0.15625h1.8438c0.0836 7e-3 0.16656 0.0239 0.25 0.0312v-0.0312h0.21875v0.0312c0.0833 7e-3 0.16692 0.0238 0.25 0.0312v-0.0625h0.25v0.0937c0.0819 7e-3 0.16828-8e-3 0.25 0v-0.0937h0.21875v0.125c0.0862 8e-3 0.16413 0.023 0.25 0.0312v-0.15625h0.3125v0.1875c0.0855 8e-3 0.16483 0.0226 0.25 0.0312v-0.21875h0.21875v0.25c0.0849 9e-3 0.16549 0.0223 0.25 0.0312v-0.28125h0.25v0.3125c0.0841 9e-3 0.16627 0.022 0.25 0.0312v-0.34375h0.21875v0.34375c0.0834 9e-3 0.16705 0.0216 0.25 0.0312v-0.375h0.3125v0.40625c0.0824 0.01 0.16809 0.0211 0.25 0.0312v-0.4375h0.21875v0.46875c0.0815 0.0103 0.16902 0.0207 0.25 0.0312v-0.5h0.25v0.53125c0.0833 0.0112 0.16724 0.0198 0.25 0.0312v-0.5625h0.21875v0.59375c0.0822 0.0117 0.16839 0.0193 0.25 0.0312v-0.625h0.3125v0.6875c0.0808 0.0123 0.16987 0.0186 0.25 0.0312v-0.71875h0.21875v0.75c0.0858 0.014 0.16507 0.0169 0.25 0.0312v-0.78125h0.25v0.84375c0.0841 0.0148 0.16681 0.0161 0.25 0.0312v-0.875h0.21875v0.90625c0.0824 0.0155 0.16852 0.0153 0.25 0.0312v-0.9375h0.3125v1.0312c0.0827 0.017 0.16836 0.0138 0.25 0.0312v-1.0625h0.21875v1.125c0.0829 0.0184 0.16831 0.0435 0.25 0.0625v-1.1875h0.25v1.2188c0.0813 0.0197 0.16991 0.0422 0.25 0.0625v-1.2812h0.21875v1.3438c0.0891 0.0235 0.16252 0.0695 0.25 0.0937v-1.4375h0.3125v1.5312c0.0825 0.0244 0.16915 0.0373 0.25 0.0625v-1.5938h0.21875v1.6562c0.0818-4e-3 0.16782 4e-3 0.25 0v-1.6562h0.25v1.625c0.0825-4e-3 0.16729 4e-3 0.25 0v-1.625h0.21875v1.625c0.0834-4e-3 0.16648-0.0279 0.25-0.0312v-1.5938h0.3125v1.5938c0.0837-3e-3 0.16628-0.0281 0.25-0.0312v-1.5625h0.21875v1.5625c0.0833-3e-3 0.16675 3e-3 0.25 0v-1.5625h0.25v1.5312c0.0832-3e-3 0.16693 3e-3 0.25 0v-1.5312h0.21875v1.5312c0.0853-4e-3 0.16486-0.0275 0.25-0.0312v-1.5h0.3125v1.5c0.0848-4e-3 0.16549-0.0269 0.25-0.0312v-1.4688h0.21875v1.4688c0.0842-5e-3 0.1662-0.0262 0.25-0.0312v-1.4375h0.25v1.4375c0.0833-5e-3 0.16715-0.0254 0.25-0.0312v-1.4062h0.21875v1.4062c0.0824-6e-3 0.1682-0.0244 0.25-0.0312v-1.375h0.3125v1.375c0.0856-8e-3 0.16514-0.0225 0.25-0.0312v-1.3438h0.21875v1.3125c0.0841-0.01 0.16675-0.021 0.25-0.0312v-1.2812h0.25v1.25c0.0823-0.0112 0.16869-0.0192 0.25-0.0312v-1.2188h0.21875v1.1875c0.0855-0.0138 0.16577-0.0475 0.25-0.0625v-1.125h0.3125v1.0938c0.0826-0.0165 0.16879-0.0447 0.25-0.0625v-1.0312h0.21875v1c0.0901-0.0214 0.16188-0.0706 0.25-0.0937v-0.90625h0.25v0.84375c0.0834-0.0242 0.16864-0.0364 0.25-0.0625v-0.78125h0.21875v0.71875c0.0853-0.0298 0.16723-0.0616 0.25-0.0937v-0.625h0.3125v0.46875c0.0848-0.0379 0.16836-0.0842 0.25-0.125v-0.34375h0.21875v0.21875c8e-3 -4e-3 0.0234 4e-3 0.0312 0 0.0775 4e-3 0.14284 0.0262 0.21875 0.0312v-0.25h0.25v0.28125c0.0845 7e-3 0.16757 0.0235 0.25 0.0312v-0.3125h0.21875v0.3125c0.0806 9e-3 0.17152 0.0216 0.25 0.0312v-0.34375h0.3125v0.40625c0.0885 0.0128 0.16452 0.017 0.25 0.0312v-0.4375h0.21875v0.46875c0.0847 0.0158 0.16848 0.0452 0.25 0.0625v-0.53125h0.25v0.5625c0.0857 0.0206 0.16822 0.0401 0.25 0.0625v-0.625h0.21875v0.71875c0.0845 0.0263 0.1702 0.0339 0.25 0.0625v-0.78125h0.3125v0.875c0.0861 0.0367 0.17041 0.0852 0.25 0.125v-1h0.21875v1.125c0.0901 0.0524 0.17007 0.0991 0.25 0.15625v-1.2812h0.25v1.3125c0.0883-0.0133 0.16521-0.0163 0.25-0.0312v-1.2812h0.21875v1.2188c0.0816-0.0165 0.17187-0.0131 0.25-0.0312v-1.1875h0.3125v1.125c0.0922-0.0253 0.16308-0.066 0.25-0.0937v-1.0312h0.21875v0.9375c0.0822-0.03 0.17297-0.0613 0.25-0.0937v-0.84375h0.25v0.75c0.0939-0.0459 0.1648-0.10627 0.25-0.15625v-0.59375h0.21875v0.46875c0.0856-0.0587 0.17455-0.12403 0.25-0.1875v-0.28125h0.1875v-0.15625h-0.1875v-0.5c-0.0748-0.0695-0.1667-0.12271-0.25-0.1875v0.6875h-0.21875v-0.84375c-0.0879-0.0587-0.15317-0.13377-0.25-0.1875v1.0312h-0.25v-1.125c-0.0784-0.0378-0.16603-0.0903-0.25-0.125v1.25h-0.21875v-1.3438c-0.0817-0.0294-0.1632-0.0671-0.25-0.0937v1.4375h-0.3125v-1.5c-0.0835-0.0211-0.16215-0.0438-0.25-0.0625v1.5625h-0.21875v-1.625c-0.0567-0.0102-0.0978-0.022-0.15625-0.0312-0.0298 0.0121-0.0639 0.0192-0.0937 0.0312v1.625h-0.25v-1.5312c-0.0813 0.0318-0.1681 0.0629-0.25 0.0937v1.4375h-0.21875v-1.3438c-0.0825 0.0298-0.16669 0.0653-0.25 0.0937v1.25h-0.3125v-1.1562c-0.0814 0.0257-0.16759 0.0384-0.25 0.0625v1.0938h-0.21875v-1.0312c-0.0862 0.0233-0.1626 0.0725-0.25 0.0937v0.9375h-0.25v-0.875c-0.0821 0.0176-0.16666 0.0157-0.25 0.0312v0.84375h-0.21875v-0.8125c-0.0834 0.0135-0.16521 0.0201-0.25 0.0312v0.78125h-0.3125v-0.75c-0.0841 8e-3 -0.16446 0.0257-0.25 0.0312v0.71875h-0.21875v-0.71875c-0.0829 3e-3 -0.16559 0.0304-0.25 0.0312v0.6875h-0.25v-0.6875c-0.0817-2e-3 -0.1668 4e-3 -0.25 0v0.6875h-0.21875v-0.71875c-0.074-5e-3 -0.1436 7e-3 -0.21875 0-0.0117-8e-3 -0.0195-0.0236-0.0312-0.0312v0.75h-0.3125v-0.90625c-0.0805-0.045-0.16721-0.0838-0.25-0.125v1.0312h-0.21875v-1.1562c-0.084-0.0375-0.1639-0.0909-0.25-0.125v1.2812h-0.25v-1.3438c-0.0829-0.0294-0.16541-0.0671-0.25-0.0937v1.4375h-0.21875v-1.5312c-0.0818-0.0232-0.16687-0.0416-0.25-0.0625v1.5938h-0.3125v-1.6562c-0.0837-0.0182-0.16516-0.0462-0.25-0.0625v1.7188h-0.21875v-1.75c-0.0828-0.0143-0.16626-0.0185-0.25-0.0312v1.7812h-0.25v-1.8125c-0.0821-0.011-0.16713-0.0215-0.25-0.0312v1.8438h-0.21875v-1.875c-0.0835-9e-3 -0.1659-0.0235-0.25-0.0312v1.9062h-0.3125v-1.9062c-0.0827-7e-3 -0.16686-0.0255-0.25-0.0312v1.9375h-0.21875v-1.9375c-0.0835-5e-3 -0.16616-0.0267-0.25-0.0312v1.9688h-0.25v-1.9688c-0.0841-4e-3 -0.16563-0.0276-0.25-0.0312v2h-0.21875v-2c-0.084-3e-3 -0.16591 3e-3 -0.25 0v2h-0.3125v-2.0312c-0.0842-3e-3 -0.16585 3e-3 -0.25 0v2.0312h-0.21875v-2.0625c-0.0841-3e-3 -0.16602 3e-3 -0.25 0v2.0625h-0.25v-2.0938c-0.0838-4e-3 -0.16642 4e-3 -0.25 0v2.0938h-0.21875v-2.0938c-0.0839-4e-3 -0.16645-0.0262-0.25-0.0312v2.125h-0.3125v-2.125c-0.083-6e-3 -0.16744-0.0246-0.25-0.0312zm16.562 2v0.28125c0.0438-0.0516 0.0863-0.10218 0.125-0.15625-0.0351-0.0477-0.0873-0.0788-0.125-0.125z" fill="url(#linearGradient36899)"/>
      <path d="m729.19-226.52v1.3125h1.6562v-1.3125z"/>
      <path d="m707.19-228.52v1.3125h1.6562v-1.3125z"/>
      <path d="m729.16-226.59v1.3125h1.6562v-1.3125z" fill="#b7c8b7"/>
      <path d="m707.16-228.59v1.3125h1.6562v-1.3125z" fill="#b7c8b7"/>
      <path d="m729.16-226.59v1.3125h0.0625v-1.25h1.5938v-0.0625z" fill="#dbe3db"/>
      <path d="m707.16-228.59v1.3125h0.0625v-1.25h1.5938v-0.0625z" fill="#dbe3db"/>
      <path d="m730.75-226.59v1.25h-1.5938v0.0625h1.6562v-1.3125z" fill="#6c5340"/>
      <path d="m708.75-228.59v1.25h-1.5938v0.0625h1.6562v-1.3125z" fill="#6c5340"/>
      <path d="m707.19-234.52v1.3125h1.6562v-1.3125z"/>
      <path d="m733.19-226.52v1.3125h1.6562v-1.3125z"/>
      <path d="m707.16-234.59v1.3125h1.6562v-1.3125z" fill="#b7c8b7"/>
      <path d="m733.16-226.59v1.3125h1.6562v-1.3125z" fill="#b7c8b7"/>
      <path d="m707.16-234.59v1.3125h0.0625v-1.25h1.5938v-0.0625z" fill="#dbe3db"/>
      <path d="m733.16-226.59v1.3125h0.0625v-1.25h1.5938v-0.0625z" fill="#dbe3db"/>
      <path d="m708.75-234.59v1.25h-1.5938v0.0625h1.6562v-1.3125z" fill="#6c5340"/>
      <path d="m734.75-226.59v1.25h-1.5938v0.0625h1.6562v-1.3125z" fill="#6c5340"/>
      <path d="m705.19-234.52v1.3125h1.6562v-1.3125z"/>
      <path d="m731.19-226.52v1.3125h1.6562v-1.3125z"/>
      <path d="m705.16-234.59v1.3125h1.6562v-1.3125z" fill="#b7c8b7"/>
      <path d="m731.16-226.59v1.3125h1.6562v-1.3125z" fill="#b7c8b7"/>
      <path d="m705.16-234.59v1.3125h0.0625v-1.25h1.5938v-0.0625z" fill="#dbe3db"/>
      <path d="m731.16-226.59v1.3125h0.0625v-1.25h1.5938v-0.0625z" fill="#dbe3db"/>
      <path d="m706.75-234.59v1.25h-1.5938v0.0625h1.6562v-1.3125z" fill="#6c5340"/>
      <path d="m732.75-226.59v1.25h-1.5938v0.0625h1.6562v-1.3125z" fill="#6c5340"/>
      <g transform="translate(20,-100)">
        <g>
          <path transform="matrix(1.0676 0 0 1.0676 728.26 -150.54)" d="m-32.317 23.613a1.626 1.626 0 1 1-3.252 0 1.626 1.626 0 1 1 3.252 0z"/>
          <path transform="matrix(1.0676 0 0 1.0676 727.5 -155.99)" d="m-31.25 28.72a1.9817 1.9817 0 1 1-3.9634 0 1.9817 1.9817 0 1 1 3.9634 0z"/>
          <path transform="matrix(1.0676 0 0 1.0676 727.52 -155.9)" d="m-31.25 28.72a1.9817 1.9817 0 1 1-3.9634 0 1.9817 1.9817 0 1 1 3.9634 0z"/>
        </g>
        <path transform="matrix(1.0676 0 0 1.0676 727.5 -155.99)" d="m-31.25 28.72a1.9817 1.9817 0 1 1-3.9634 0 1.9817 1.9817 0 1 1 3.9634 0z" fill="url(#radialGradient36901)" opacity=".5"/>
        <path transform="matrix(1.0676 0 0 1.0676 728.26 -150.54)" d="m-32.317 23.613a1.626 1.626 0 1 1-3.252 0 1.626 1.626 0 1 1 3.252 0z" fill="#b3b3b3"/>
        <path d="m691.97-127.07v0.5674h0.1v-0.5674c-0.0121-2.4e-4 -0.0192 0-0.032 0-0.0192 0-0.0448-7e-4 -0.0666 0zm0.66728 0.1-0.20002 0.50072 0.032 0.032 0.23336-0.50072c-0.0192-7e-3 -0.0448-0.0256-0.0666-0.032zm-1.3012 0.032 0.20004 0.53406 0.0666-0.032-0.20004-0.50008c-0.0192 7e-3 -0.0448-7e-3 -0.0666 0zm-0.50008 0.33338c-0.0256 0.0192-0.0448 0.0448-0.0666 0.0666l0.40006 0.40008 0.0666-0.0666zm2.3687 0-0.36672 0.40007 0.032 0.032 0.40006-0.36674c-0.0192-0.0256-0.0448-0.0448-0.0666-0.0666zm-2.7358 0.56741c-0.0121 0.0256-0.0256 0.0448-0.032 0.0666l0.50071 0.20004 0.032-0.0666-0.50072-0.20002zm3.1362 0-0.50072 0.20003 0.032 0.0666 0.50072-0.20004c-3e-3 -0.0121 3e-3 -0.0256 0-0.032-5e-3 -0.0121-0.0256-0.0192-0.032-0.032zm-3.303 0.66729c-1.9e-4 0.0121 0 0.0192 0 0.032 0 0.0121-1.9e-4 0.0256 0 0.032h0.5674v-0.0666h-0.5674zm2.9026 0v0.0666h0.5674c1.9e-4 -0.0121 0-0.0256 0-0.032 0-0.0121 1.9e-4 -0.0192 0-0.032h-0.5674zm-0.1 0.40006-0.032 0.1 0.53406 0.23339c0.0192-0.0384 0.0512-0.0642 0.0666-0.1l-0.56742-0.23338zm-2.1686 0.032-0.50072 0.23338c3e-3 0.0121-5e-3 0.0256 0 0.032l0.53406-0.20004-0.032-0.0666zm0.23338 0.36674-0.40071 0.40006c0.0121 0.0192 0.0192 0.0512 0.032 0.0666h0.032l0.40008-0.40072-0.0666-0.0666zm1.7015 0-0.0666 0.0666 0.40006 0.43404c0.0256-0.0256 0.0384-0.0711 0.0666-0.10001l-0.40007-0.40006zm-1.3345 0.2667-0.23337 0.53406c0.0256 0.0121 0.0448 0.0256 0.0666 0.032l0.23336-0.53406-0.0666-0.032zm0.96753 0.032-0.10001 0.032 0.23338 0.53406c0.0192-7e-3 0.0448-0.0256 0.0666-0.032l-0.20004-0.53406zm-0.53406 0.10001v0.5674c0.0192 7e-4 0.0448 0 0.0666 0 0.0121 0 0.0192 2.6e-4 0.032 0v-0.5674h-0.1z" fill="url(#radialGradient36903)" opacity=".5"/>
        <path d="m692-127.07-7e-3 0.56742 0.10001 2e-3 7e-3 -0.56676c-0.0121-4.5e-4 -0.0192-3.3e-4 -0.032-5.7e-4 -0.0192-3.3e-4 -0.0448-7e-4 -0.0666-7e-4zm0.6655 0.11159-0.20838 0.49688 0.032 0.032 0.2417-0.49624c-0.0192-0.0121-0.0448-0.0256-0.0661-0.032zm-1.3016 0.0121 0.19106 0.53727 0.0673-0.032-0.1917-0.50392c-0.0192 7e-3 -0.0448-7e-3 -0.0666-7e-4zm-0.50586 0.32506c-0.0256 0.0192-0.0448 0.0448-0.068 0.0654l0.39366 0.40712 0.068-0.0654-0.39366-0.40711zm2.3685 0.0384-0.37378 0.39429 0.032 0.032 0.40648-0.36032c-0.0192-0.0256-0.0448-0.0448-0.0654-0.068zm-2.7449 0.52124c-0.0121 0.0256-0.0256 0.0448-0.032 0.0661l0.49688 0.20837 0.032-0.0661-0.49688-0.20836zm3.1357 0.0512-0.50394 0.1917 0.032 0.0673 0.50392-0.1917c-3e-3 -0.0121 5e-3 -0.0256 5.2e-4 -0.032-5e-3 -0.0121-0.0256-0.0192-0.032-0.032zm-3.3136 0.61228c-4.5e-4 0.0121-3.8e-4 0.0192-5.7e-4 0.032-1.9e-4 0.0121-5.9e-4 0.0256-5.9e-4 0.032l0.56742 7e-3 7.1e-4 -0.0666-0.5674-7e-3zm2.9022 0.0512-7e-4 0.0666 0.5674 7e-3c4e-4 -0.0121 4e-4 -0.0256 5.9e-4 -0.032 1.9e-4 -0.0121 5.7e-4 -0.0192 5e-4 -0.032l-0.56676-7e-3zm-0.10641 0.39878-0.032 0.0993 0.52958 0.24234c0.0192-0.0384 0.0514-0.0576 0.0685-0.0988l-0.56292-0.24298zm-2.1688-3e-3 -0.50456 0.22504c3e-3 0.0121-5e-3 0.0256-5.9e-4 0.032l0.53728-0.19106-0.032-0.0673zm0.2276 0.37058-0.40712 0.39364c0.0121 0.0192 0.0192 0.0514 0.032 0.0673l0.032 5.9e-4 0.40712-0.39366-0.0654-0.068zm1.7012 0.0256-0.068 0.0654 0.39302 0.44045c0.032-0.0256 0.0384-0.0706 0.0685-0.0988l-0.39366-0.40712zm-1.3388 0.2449-0.24234 0.52958c0.0256 0.0121 0.0448 0.0256 0.0661 0.032l0.24235-0.52958-0.0661-0.032zm0.96689 0.0514-0.10069 0.032 0.2244 0.53726c0.0256-7e-3 0.0448-0.0256 0.0673-0.032l-0.19106-0.53726zm-0.53534 0.091-7e-3 0.56676c0.0192 7e-4 0.0448 7e-4 0.0666 7e-4 0.0121 1.9e-4 0.0192 5.7e-4 0.032 5.2e-4l7e-3 -0.5674-0.1-2e-3z" fill="url(#radialGradient36905)" opacity=".5"/>
        <path d="m692.06-127.07-0.032 0.56612 0.10001 5e-3 0.032-0.56612c-0.0121-7e-4 -0.0192-7e-4 -0.032-2e-3 -0.0192-7e-4 -0.0448-3e-3 -0.0666-3e-3zm0.66057 0.13789-0.22826 0.48854 0.032 0.032 0.26158-0.48662c-0.0192-0.0121-0.0448-0.0256-0.0647-0.0384zm-1.301-0.0384 0.1699 0.54432 0.0685-0.032-0.1718-0.51099c-0.0192 7e-3 -0.0448-0.0121-0.0666-3e-3zm-0.51868 0.30518c-0.0256 0.0192-0.0448 0.0384-0.0706 0.0642l0.37698 0.42252 0.0706-0.0642-0.377-0.4225zm2.365 0.1334-0.38916 0.3789 0.032 0.032 0.42058-0.34367c-0.0192-0.0256-0.0384-0.0448-0.0642-0.0706zm-2.7634 0.41224c-0.0121 0.0256-0.0256 0.0448-0.0384 0.0647l0.48854 0.22824 0.0384-0.0647-0.48856-0.22824zm3.1311 0.17696-0.51098 0.1718 0.032 0.0685 0.51098-0.1718c-3e-3 -0.0121 5e-3 -0.0256 2e-3 -0.032-5e-3 -0.0121-0.0256-0.0192-0.032-0.032zm-3.3353 0.47956c-7e-4 0.0121-7e-4 0.0192-2e-3 0.032-6.4e-4 0.0121-2e-3 0.0256-2e-3 0.032l0.56612 0.032 3e-3 -0.0666-0.56612-0.032zm2.898 0.1635-3e-3 0.0666 0.56612 0.032c7e-4 -0.0121 7e-4 -0.0256 2e-3 -0.032 6.5e-4 -0.0121 7e-4 -0.0192 2e-3 -0.032l-0.56612-0.032zm-0.1225 0.3943-0.0384 0.0981 0.51996 0.26351c0.0192-0.0384 0.0576-0.0576 0.0725-0.0962l-0.5533-0.26544zm-2.167-0.0891-0.5129 0.20516c3e-3 0.0121-5e-3 0.0256-2e-3 0.032l0.54432-0.1699-0.032-0.0685zm0.21222 0.37956-0.4225 0.37698c0.0121 0.0192 0.0121 0.0512 0.032 0.0685l0.032 2e-3 0.42252-0.37698-0.0642-0.0706zm1.6988 0.0962-0.0706 0.0642 0.37506 0.45584c0.032-0.0256 0.0448-0.0685 0.0725-0.0962l-0.37698-0.42253zm-1.3475 0.19106-0.2635 0.51996c0.0192 0.0121 0.0448 0.0256 0.0647 0.0384l0.2635-0.51996zm0.96414 0.0879-0.1019 0.0256 0.20324 0.54625c0.0256-7e-3 0.0448-0.0192 0.0685-0.032l-0.1699-0.54432zm-0.53856 0.0699-0.032 0.56612c0.0192 2e-3 0.0448 2e-3 0.0666 3e-3 0.0121 6.4e-4 0.0192 7.1e-4 0.032 2e-3l0.032-0.56612-0.1-5e-3z" fill="url(#radialGradient36907)" opacity=".5"/>
        <path d="m692.12-127.07-0.0512 0.56484 0.0993 7e-3 0.0512-0.56484c-0.0121-7e-4 -0.0192-2e-3 -0.032-3e-3 -0.0192-2e-3 -0.0448-5e-3 -0.0666-5e-3zm0.65557 0.15969-0.24428 0.4802 0.032 0.0384 0.2776-0.47767c-0.0192-0.0121-0.0448-0.032-0.064-0.0384zm-1.2989-0.0839 0.15138 0.54946 0.0692-0.0256-0.15451-0.51676c-0.0192 5e-3 -0.0448-0.0121-0.0666-5e-3zm-0.5283 0.28724c-0.0256 0.0192-0.0514 0.0384-0.0725 0.0576l0.36289 0.43468 0.0725-0.0576-0.36288-0.43468zm2.3592 0.21284-0.40136 0.3661 0.032 0.0384 0.43148-0.32954c-0.0192-0.0256-0.0384-0.0512-0.0576-0.0725zm-2.7756 0.3193c-0.0121 0.0192-0.0256 0.0384-0.0384 0.064l0.48022 0.24428 0.0384-0.0642-0.48021-0.24426zm3.1234 0.28146-0.51674 0.1545 0.0256 0.0692 0.51612-0.15451c-3e-3 -0.0121 7e-3 -0.0256 3e-3 -0.032-5e-3 -0.0121-0.0256-0.0192-0.032-0.0384zm-3.3495 0.368c-7e-4 0.0121-2e-3 0.0192-3e-3 0.032-7e-4 0.0121-2e-3 0.0256-3e-3 0.032l0.56482 0.0512 5e-3 -0.0666-0.56484-0.0512zm2.8909 0.26094-5e-3 0.0666 0.56484 0.0512c7e-4 -0.0121 2e-3 -0.0256 3e-3 -0.032 7.1e-4 -0.0121 2e-3 -0.0192 3e-3 -0.032l-0.56484-0.0514zm-0.13599 0.3898-0.0448 0.0969 0.51098 0.28082c0.0192-0.0384 0.0576-0.0576 0.0756-0.0936l-0.54368-0.28338zm-2.1628-0.1616-0.51932 0.18786c3e-3 0.0121-7e-3 0.0256-3e-3 0.032l0.54946-0.15139-0.0256-0.0692zm0.1994 0.3866-0.4347 0.36288c0.0121 0.0192 0.0121 0.0514 0.0256 0.0692l0.032 3e-3 0.43468-0.36288-0.0576-0.0725zm1.6946 0.1526-0.0725 0.0576 0.35968 0.46802c0.032-0.0256 0.0448-0.0673 0.0756-0.0936l-0.36288-0.43468zm-1.3531 0.1462-0.28082 0.51098c0.0192 0.0121 0.0384 0.0256 0.0642 0.0384l0.28082-0.51098zm0.96061 0.1199-0.1026 0.0256 0.18464 0.55264c0.0256-7e-3 0.0448-0.0192 0.0692-0.0256l-0.15139-0.54944zm-0.54048 0.0514-0.0512 0.56484c0.0192 3e-3 0.0448 3e-3 0.0666 5e-3 0.0121 7e-4 0.0192 2e-3 0.032 3e-3l0.0514-0.56484-0.0993-7e-3z" fill="url(#radialGradient36909)" opacity=".5"/>
        <path d="m692.18-127.06-0.0699 0.56292 0.0993 0.0121 0.0699-0.56292c-0.0121-2e-3 -0.0192-3e-3 -0.032-3e-3 -0.0192-3e-3 -0.0448-7e-3 -0.0661-7e-3zm0.64979 0.18208-0.2603 0.47188 0.032 0.0384 0.29364-0.46802c-0.0192-0.0121-0.0384-0.032-0.0642-0.0384zm-1.2953-0.12751 0.1327 0.55458 0.0706-0.0256-0.13651-0.52124c-0.0192 5e-3 -0.0448-0.0121-0.0661-7e-3zm-0.53792 0.26928c-0.0256 0.0192-0.0512 0.0384-0.0744 0.0576l0.34812 0.44686 0.0744-0.0578-0.34814-0.44687zm2.3507 0.293-0.41354 0.35198 0.032 0.0384 0.44238-0.3148c-0.0192-0.0256-0.0384-0.0512-0.0578-0.0744zm-2.785 0.22438c-0.0121 0.0192-0.032 0.0384-0.0384 0.0642l0.47186 0.2603 0.0384-0.0642-0.47188-0.2603zm3.1121 0.3879-0.52124 0.1372 0.0256 0.0699 0.52124-0.13651c-2e-3 -0.0121 7e-3 -0.0256 3e-3 -0.032-3e-3 -0.0121-0.0256-0.0256-0.032-0.0384zm-3.3601 0.25388c-2e-3 0.0121-3e-3 0.0192-3e-3 0.032-7e-4 0.0121-3e-3 0.0192-3e-3 0.032l0.56292 0.0699 7e-3 -0.0661-0.56292-0.0706zm2.8803 0.35904-7e-3 0.0661 0.5629 0.0706c7e-4 -0.0121 3e-3 -0.0192 3e-3 -0.032 7e-4 -0.0121 3e-3 -0.0192 3e-3 -0.032l-0.56292-0.0706zm-0.14879 0.38468-0.0448 0.0955 0.50072 0.29748c0.0192-0.032 0.0578-0.0512 0.0782-0.091l-0.53406-0.30196zm-2.1561-0.23466-0.52574 0.1699c3e-3 0.0121-7e-3 0.0192-3e-3 0.032l0.55458-0.13271-0.0256-0.0706zm0.18656 0.39302-0.44686 0.34812c0.0121 0.0192 0.0121 0.0512 0.0256 0.0699l0.032 3e-3 0.44686-0.3475-0.0576-0.0744zm1.6885 0.21028-0.0744 0.0576 0.34364 0.47959c0.032-0.0256 0.0512-0.0654 0.0782-0.091l-0.34812-0.44688zm-1.3573 0.1-0.2975 0.50072c0.0192 0.0121 0.0384 0.032 0.0642 0.0384l0.29748-0.50072-0.0642-0.0384zm0.95592 0.1526-0.10329 0.0192 0.16609 0.55844c0.0256-5e-3 0.0448-0.0192 0.0706-0.0256l-0.1327-0.55458zm-0.54176 0.032-0.0706 0.56292c0.0192 3e-3 0.0448 5e-3 0.0661 7e-3 0.0121 2e-3 0.0192 3e-3 0.032 3e-3l0.0706-0.56292-0.0993-0.0121z" fill="url(#radialGradient36911)" opacity=".5"/>
        <path transform="matrix(1.0676 0 0 1.0676 728.74 -151.48)" d="m-33.343 24.487a1.051 1.051 0 1 1-2.1019 0 1.051 1.051 0 1 1 2.1019 0z" fill="url(#linearGradient36913)" opacity=".5"/>
      </g>
      <g>
        <path transform="matrix(.61707 0 0 .61707 726.29 -245.55)" d="m-32.317 23.613a1.626 1.626 0 1 1-3.252 0 1.626 1.626 0 1 1 3.252 0z"/>
        <path transform="matrix(.61707 0 0 .61707 725.85 -248.7)" d="m-31.25 28.72a1.9817 1.9817 0 1 1-3.9634 0 1.9817 1.9817 0 1 1 3.9634 0z"/>
        <path transform="matrix(.61707 0 0 .61707 725.86 -248.65)" d="m-31.25 28.72a1.9817 1.9817 0 1 1-3.9634 0 1.9817 1.9817 0 1 1 3.9634 0z"/>
      </g>
      <path transform="matrix(.61707 0 0 .61707 725.85 -248.7)" d="m-31.25 28.72a1.9817 1.9817 0 1 1-3.9634 0 1.9817 1.9817 0 1 1 3.9634 0z" fill="url(#radialGradient36901)" opacity=".5"/>
      <path transform="matrix(.61707 0 0 .61707 726.29 -245.55)" d="m-32.317 23.613a1.626 1.626 0 1 1-3.252 0 1.626 1.626 0 1 1 3.252 0z" fill="#b3b3b3"/>
      <path d="m705.31-231.98v0.32782h0.0578v-0.32782c-7e-3 -1.4e-4 -0.0124 0-0.0193 0-0.0125 0-0.0262-4.5e-4 -0.0386 0zm0.38566 0.0579-0.1157 0.28925 0.0193 0.0193 0.13498-0.28925c-0.0127-5e-3 -0.0256-0.0144-0.0386-0.0193zm-0.75205 0.0193 0.1157 0.30853 0.0386-0.0193-0.1157-0.28925c-0.0112 4e-3 -0.0276-5e-3 -0.0386 0zm-0.28925 0.19283c-0.0133 0.0126-0.0259 0.0253-0.0386 0.0386l0.2314 0.2314 0.0386-0.0386zm1.3691 0-0.21212 0.2314 0.0193 0.0193 0.2314-0.21211c-0.0126-0.0133-0.0252-0.026-0.0386-0.0386zm-1.5812 0.32782c-6e-3 0.0134-0.0138 0.0249-0.0193 0.0386l0.28925 0.1157 0.0193-0.0386zm1.8126 0-0.28925 0.1157 0.0193 0.0386 0.28925-0.1157c-2e-3 -6e-3 2e-3 -0.0138 0-0.0193-3e-3 -8e-3 -0.0157-0.0115-0.0193-0.0193zm-1.9091 0.38567c-1.3e-4 7e-3 0 0.0124 0 0.0193 0 6e-3 -1.1e-4 0.0131 0 0.0193h0.32782v-0.0386zm1.6777 0v0.0386h0.32782c1.1e-4 -6e-3 0-0.013 0-0.0193 0-7e-3 1.4e-4 -0.0125 0-0.0193zm-0.0579 0.2314-0.0193 0.0579 0.30853 0.13498c0.01-0.0216 0.0303-0.0354 0.0386-0.0579l-0.32782-0.13498zm-1.2534 0.0193-0.28925 0.13499c2e-3 6e-3 -3e-3 0.0133 0 0.0193l0.30853-0.1157-0.0193-0.0386zm0.13498 0.21212-0.2314 0.2314c9e-3 0.01 0.01 0.0293 0.0193 0.0386h0.0193l0.2314-0.2314zm0.98346 0-0.0386 0.0386 0.2314 0.25068c0.0166-0.0157 0.023-0.041 0.0386-0.0578l-0.2314-0.2314zm-0.77134 0.15427-0.13498 0.30853c0.0133 6e-3 0.025 0.0138 0.0386 0.0193l0.13499-0.30854-0.0386-0.0193zm0.55922 0.0193-0.0579 0.0193 0.13498 0.30854c0.0129-5e-3 0.0259-0.0139 0.0386-0.0193l-0.1157-0.30854zm-0.30853 0.0579v0.32782c0.0124 4.5e-4 0.0261 0 0.0386 0 7e-3 0 0.0125 1.4e-4 0.0193 0v-0.32782h-0.0578z" fill="url(#radialGradient36917)" opacity=".5"/>
      <path d="m705.33-231.98-5e-3 0.32777 0.0578 9.9e-4 5e-3 -0.32777c-7e-3 -2.6e-4 -0.0124-2.1e-4 -0.0193-3.3e-4 -0.0125-2e-4 -0.0262-8.6e-4 -0.0386-6.1e-4zm0.38465 0.0643-0.12051 0.28728 0.019 0.0196 0.13979-0.28696c-0.0126-6e-3 -0.0254-0.0149-0.0382-0.0199zm-0.75227 7e-3 0.11054 0.31043 0.0389-0.0186-0.11086-0.29114c-0.0113 4e-3 -0.0275-5e-3 -0.0386-6.2e-4zm-0.29243 0.18799c-0.0136 0.0124-0.0264 0.0248-0.0392 0.0379l0.22751 0.23523 0.0392-0.0379zm1.3689 0.0228-0.21595 0.22783 0.019 0.0196 0.2349-0.20823c-0.0124-0.0135-0.0248-0.0264-0.0379-0.0392zm-1.5865 0.30141c-6e-3 0.0133-0.0142 0.0247-0.0199 0.0382l0.28728 0.1205 0.0199-0.0382zm1.8124 0.0302-0.29114 0.11086 0.0186 0.0389 0.29115-0.11086c-2e-3 -6e-3 3e-3 -0.0137 3.2e-4 -0.0193-3e-3 -8e-3 -0.0155-0.0117-0.019-0.0196zm-1.9152 0.35378c-2.5e-4 7e-3 -2e-4 0.0124-3.2e-4 0.0193-1e-4 6e-3 -3.3e-4 0.013-3.2e-4 0.0193l0.32777 5e-3 6.2e-4 -0.0386-0.32777-5e-3zm1.6774 0.028-6.2e-4 0.0386 0.32778 5e-3c2.1e-4 -6e-3 2.1e-4 -0.013 3.2e-4 -0.0193 1.1e-4 -7e-3 3.4e-4 -0.0125 3.2e-4 -0.0193l-0.32777-5e-3zm-0.0617 0.2304-0.0203 0.0575 0.30625 0.14011c0.0102-0.0215 0.0308-0.0349 0.0395-0.0572l-0.32552-0.14043zm-1.2536-2e-3 -0.29146 0.13014c2e-3 6e-3 -3e-3 0.0132-3.3e-4 0.0193l0.31043-0.11054-0.0186-0.0389zm0.13143 0.21434-0.23523 0.22751c9e-3 0.01 0.01 0.0295 0.0186 0.0389l0.0193 3.2e-4 0.23523-0.22751-0.0379-0.0392zm0.98332 0.0164-0.0392 0.0379 0.22719 0.25451c0.0169-0.0154 0.0237-0.0407 0.0395-0.0572l-0.22751-0.23523zm-0.77381 0.14139-0.1401 0.30624c0.0131 6e-3 0.0248 0.0142 0.0382 0.0199l0.14011-0.30624-0.0382-0.0199zm0.55882 0.0286-0.0582 0.0183 0.12982 0.31074c0.013-5e-3 0.0261-0.0135 0.0389-0.0186l-0.11054-0.31043zm-0.30945 0.0527-5e-3 0.32777c0.0124 6.8e-4 0.0261 4.4e-4 0.0386 6.2e-4 7e-3 1.1e-4 0.0125 3.5e-4 0.0193 3.2e-4l5e-3 -0.32777-0.0578-9.9e-4z" fill="url(#radialGradient36919)" opacity=".5"/>
      <path d="m705.37-231.98-0.0185 0.3273 0.0578 3e-3 0.0185-0.3273c-7e-3 -5.2e-4 -0.0124-6.8e-4 -0.0192-1e-3 -0.0125-6.8e-4 -0.0261-2e-3 -0.0385-2e-3zm0.38179 0.0795-0.13183 0.28227 0.0182 0.0203 0.15108-0.28117c-0.0123-6e-3 -0.0248-0.0159-0.0374-0.0214zm-0.75194-0.0232 0.0981 0.31457 0.0396-0.0171-0.0992-0.29531c-0.0114 4e-3 -0.0273-6e-3 -0.0385-2e-3zm-0.29967 0.17621c-0.014 0.0118-0.0273 0.0238-0.0407 0.0363l0.21798 0.24409 0.0407-0.0363zm1.3669 0.0772-0.22483 0.21907 0.0182 0.0203 0.243-0.19873c-0.0119-0.014-0.0237-0.0273-0.0363-0.0407zm-1.5972 0.2381c-7e-3 0.013-0.0152 0.0241-0.0214 0.0374l0.28226 0.13183 0.0214-0.0374-0.28226-0.13184zm1.8098 0.10225-0.29532 0.0992 0.0171 0.0396 0.29532-0.0992c-2e-3 -6e-3 3e-3 -0.0136 1e-3 -0.0193-3e-3 -8e-3 -0.0151-0.0123-0.0182-0.0203zm-1.9278 0.27737c-5.2e-4 7e-3 -6.8e-4 0.0124-1e-3 0.0192-3.5e-4 6e-3 -8.6e-4 0.013-1e-3 0.0192l0.32729 0.0185 2e-3 -0.0385-0.32729-0.0185zm1.675 0.0946-2e-3 0.0385 0.32729 0.0185c4.7e-4 -6e-3 7.5e-4 -0.013 1e-3 -0.0192 3.8e-4 -7e-3 8.6e-4 -0.0124 1e-3 -0.0193l-0.3273-0.0185zm-0.0708 0.22777-0.0225 0.0567 0.30043 0.15217c0.011-0.0211 0.0322-0.0336 0.0418-0.0556l-0.31968-0.15326zm-1.2525-0.0514-0.2964 0.11845c2e-3 6e-3 -3e-3 0.0131-1e-3 0.0192l0.31457-0.0981-0.0171-0.0396zm0.12281 0.21939-0.24409 0.21798c8e-3 0.0101 8e-3 0.0299 0.0171 0.0396l0.0192 1e-3 0.24409-0.21798-0.0363-0.0407zm0.98189 0.0555-0.0407 0.0363 0.21689 0.26334c0.0175-0.0147 0.0253-0.0397 0.0418-0.0556l-0.21798-0.24409zm-0.77882 0.11051-0.15217 0.30043c0.0129 7e-3 0.0242 0.0152 0.0374 0.0214l0.15217-0.30043zm0.55725 0.0508-0.0588 0.016 0.11737 0.31565c0.0132-4e-3 0.0266-0.0124 0.0396-0.0171l-0.0981-0.31457zm-0.31131 0.0404-0.0185 0.3273c0.0123 1e-3 0.026 1e-3 0.0385 2e-3 7e-3 3.8e-4 0.0124 8.6e-4 0.0192 1e-3l0.0185-0.3273-0.0578-3e-3z" fill="url(#radialGradient36921)" opacity=".5"/>
      <path d="m705.4-231.98-0.0295 0.32649 0.0576 5e-3 0.0295-0.3265c-7e-3 -7.4e-4 -0.0124-1e-3 -0.0192-2e-3 -0.0124-1e-3 -0.026-3e-3 -0.0384-3e-3zm0.37891 0.0923-0.14122 0.27769 0.0175 0.0209 0.16042-0.27595c-0.0121-6e-3 -0.0242-0.0167-0.0367-0.0227zm-0.75074-0.0484 0.0875 0.31768 0.0401-0.0157-0.0892-0.29848c-0.0115 3e-3 -0.027-7e-3 -0.0384-3e-3zm-0.30541 0.16606c-0.0144 0.0113-0.0281 0.0228-0.0419 0.035l0.20968 0.25125 0.0419-0.0349-0.20967-0.25126zm1.3636 0.12302-0.23205 0.21141 0.0175 0.0209 0.24953-0.19047c-0.0114-0.0144-0.0228-0.0281-0.0349-0.0419zm-1.6043 0.18442c-7e-3 0.0128-0.016 0.0236-0.0227 0.0367l0.27769 0.14122 0.0227-0.0367-0.27768-0.14122zm1.8053 0.16286-0.29848 0.0893 0.0157 0.0401 0.29847-0.0892c-2e-3 -6e-3 4e-3 -0.0135 2e-3 -0.0192-3e-3 -8e-3 -0.0146-0.0128-0.0175-0.0209zm-1.936 0.21258c-7.4e-4 7e-3 -1e-3 0.0124-2e-3 0.0192-5.6e-4 6e-3 -1e-3 0.013-2e-3 0.0192l0.32649 0.0295 3e-3 -0.0384-0.32649-0.0295zm1.6709 0.15074-3e-3 0.0384 0.32649 0.0295c6.7e-4 -6e-3 1e-3 -0.013 2e-3 -0.0192 6.2e-4 -7e-3 1e-3 -0.0124 2e-3 -0.0192l-0.32649-0.0295zm-0.0784 0.22527-0.0244 0.0559 0.29516 0.16216c0.0117-0.0207 0.0333-0.0326 0.0436-0.0541l-0.31437-0.1639zm-1.2501-0.0934-0.30022 0.10845c2e-3 6e-3 -4e-3 0.013-2e-3 0.0192l0.31768-0.0875-0.0157-0.0401zm0.11537 0.22339-0.25125 0.20967c8e-3 0.0104 7e-3 0.0301 0.0157 0.0401l0.0192 2e-3 0.25126-0.20967-0.035-0.0419zm0.97948 0.0884-0.0419 0.035 0.20794 0.27047c0.018-0.0142 0.0266-0.0388 0.0436-0.0542l-0.20967-0.25126zm-0.78208 0.0843-0.16216 0.29516c0.0127 7e-3 0.0237 0.016 0.0367 0.0227l0.16216-0.29516zm0.55523 0.0694-0.0593 0.014 0.10672 0.31942c0.0133-4e-3 0.0271-0.0115 0.0401-0.0157l-0.0875-0.31768zm-0.31249 0.0299-0.0295 0.32649c0.0123 2e-3 0.026 2e-3 0.0384 3e-3 7e-3 6.1e-4 0.0124 1e-3 0.0192 2e-3l0.0295-0.32649z" fill="url(#radialGradient36923)" opacity=".5"/>
      <path d="m705.43-231.98-0.0406 0.32531 0.0574 7e-3 0.0406-0.3253c-7e-3 -9.8e-4 -0.0123-2e-3 -0.0191-2e-3 -0.0124-2e-3 -0.0259-4e-3 -0.0383-5e-3zm0.37555 0.10509-0.15057 0.27273 0.0168 0.0215 0.16971-0.27034c-0.0119-7e-3 -0.0237-0.0175-0.0359-0.0239zm-0.74866-0.0738 0.0767 0.32047 0.0407-0.0144-0.0791-0.30133c-0.0116 3e-3 -0.0268-8e-3 -0.0383-5e-3zm-0.31088 0.15559c-0.0148 0.0109-0.0289 0.0219-0.043 0.0335l0.20102 0.25823 0.043-0.0335zm1.3586 0.16927-0.2391 0.2034 0.0168 0.0215 0.25585-0.18188c-0.0109-0.0148-0.0218-0.0289-0.0335-0.043zm-1.6096 0.12981c-8e-3 0.0125-0.0168 0.023-0.0239 0.0359l0.27273 0.15057 0.0239-0.0359zm1.7987 0.2241-0.30134 0.0791 0.0144 0.0406 0.30134-0.0791c-1e-3 -6e-3 4e-3 -0.0134 2e-3 -0.0191-2e-3 -8e-3 -0.0142-0.0133-0.0168-0.0215zm-1.9421 0.14669c-9.9e-4 7e-3 -2e-3 0.0123-2e-3 0.0191-8e-4 6e-3 -2e-3 0.0129-2e-3 0.0191l0.3253 0.0406 5e-3 -0.0383-0.3253-0.0406zm1.6648 0.20741-5e-3 0.0383 0.3253 0.0406c8.7e-4 -6e-3 2e-3 -0.0129 2e-3 -0.0191 8.6e-4 -7e-3 2e-3 -0.0123 2e-3 -0.0191l-0.3253-0.0406zm-0.086 0.22247-0.0263 0.055 0.28948 0.17209c0.0124-0.0203 0.0344-0.0314 0.0454-0.0526l-0.30862-0.17448zm-1.2462-0.13582-0.30373 0.0982c2e-3 6e-3 -4e-3 0.0129-2e-3 0.0191l0.32047-0.0767-0.0144-0.0406zm0.10772 0.22718-0.25823 0.20102c8e-3 0.0106 6e-3 0.0304 0.0144 0.0406l0.0191 2e-3 0.25824-0.20102-0.0335-0.043zm0.97591 0.12159-0.043 0.0335 0.19863 0.27737c0.0185-0.0135 0.0279-0.0379 0.0454-0.0526l-0.20102-0.25824zm-0.78449 0.0577-0.17209 0.28948c0.0124 8e-3 0.0231 0.0168 0.0359 0.0239l0.1721-0.28948-0.0359-0.0239zm0.55254 0.0883-0.0598 0.012 0.0958 0.32285c0.0134-3e-3 0.0274-0.0106 0.0407-0.0144l-0.0767-0.32047zm-0.31332 0.0193-0.0406 0.3253c0.0122 2e-3 0.0259 3e-3 0.0383 5e-3 7e-3 8.7e-4 0.0124 2e-3 0.0191 2e-3l0.0406-0.3253z" fill="url(#radialGradient36925)" opacity=".5"/>
      <path transform="matrix(.61707 0 0 .61707 726.56 -246.09)" d="m-33.343 24.487a1.051 1.051 0 1 1-2.1019 0 1.051 1.051 0 1 1 2.1019 0z" fill="url(#linearGradient36913)" opacity=".5"/>
      <g>
        <path transform="matrix(.61707 0 0 .61707 729.6 -245.55)" d="m-32.317 23.613a1.626 1.626 0 1 1-3.252 0 1.626 1.626 0 1 1 3.252 0z"/>
        <path transform="matrix(.61707 0 0 .61707 729.16 -248.7)" d="m-31.25 28.72a1.9817 1.9817 0 1 1-3.9634 0 1.9817 1.9817 0 1 1 3.9634 0z"/>
        <path transform="matrix(.61707 0 0 .61707 729.17 -248.65)" d="m-31.25 28.72a1.9817 1.9817 0 1 1-3.9634 0 1.9817 1.9817 0 1 1 3.9634 0z"/>
      </g>
      <path transform="matrix(.61707 0 0 .61707 729.16 -248.7)" d="m-31.25 28.72a1.9817 1.9817 0 1 1-3.9634 0 1.9817 1.9817 0 1 1 3.9634 0z" fill="url(#radialGradient36901)" opacity=".5"/>
      <path transform="matrix(.61707 0 0 .61707 729.6 -245.55)" d="m-32.317 23.613a1.626 1.626 0 1 1-3.252 0 1.626 1.626 0 1 1 3.252 0z" fill="#b3b3b3"/>
      <path d="m708.62-231.98v0.32782h0.0578v-0.32782c-7e-3 -1.4e-4 -0.0124 0-0.0193 0-0.0125 0-0.0262-4.5e-4 -0.0386 0zm0.38566 0.0579-0.1157 0.28925 0.0193 0.0193 0.13498-0.28925c-0.0127-5e-3 -0.0256-0.0144-0.0386-0.0193zm-0.75205 0.0193 0.1157 0.30853 0.0386-0.0193-0.1157-0.28925c-0.0112 4e-3 -0.0276-5e-3 -0.0386 0zm-0.28925 0.19283c-0.0133 0.0126-0.0259 0.0253-0.0386 0.0386l0.2314 0.2314 0.0386-0.0386zm1.3691 0-0.21212 0.2314 0.0193 0.0193 0.2314-0.21211c-0.0126-0.0133-0.0252-0.026-0.0386-0.0386zm-1.5812 0.32782c-6e-3 0.0134-0.0138 0.0249-0.0193 0.0386l0.28925 0.1157 0.0193-0.0386zm1.8126 0-0.28925 0.1157 0.0193 0.0386 0.28925-0.1157c-2e-3 -6e-3 2e-3 -0.0138 0-0.0193-3e-3 -8e-3 -0.0157-0.0115-0.0193-0.0193zm-1.9091 0.38567c-1.3e-4 7e-3 0 0.0124 0 0.0193 0 6e-3 -1.1e-4 0.0131 0 0.0193h0.32782v-0.0386zm1.6777 0v0.0386h0.32782c1.1e-4 -6e-3 0-0.013 0-0.0193 0-7e-3 1.4e-4 -0.0125 0-0.0193zm-0.0579 0.2314-0.0193 0.0579 0.30853 0.13498c0.01-0.0216 0.0303-0.0354 0.0386-0.0579l-0.32782-0.13498zm-1.2534 0.0193-0.28925 0.13499c2e-3 6e-3 -3e-3 0.0133 0 0.0193l0.30853-0.1157-0.0193-0.0386zm0.13498 0.21212-0.2314 0.2314c9e-3 0.01 0.01 0.0293 0.0193 0.0386h0.0193l0.2314-0.2314zm0.98346 0-0.0386 0.0386 0.2314 0.25068c0.0166-0.0157 0.023-0.041 0.0386-0.0578l-0.2314-0.2314zm-0.77134 0.15427-0.13498 0.30853c0.0133 6e-3 0.025 0.0138 0.0386 0.0193l0.13499-0.30854-0.0386-0.0193zm0.55922 0.0193-0.0579 0.0193 0.13498 0.30854c0.0129-5e-3 0.0259-0.0139 0.0386-0.0193l-0.1157-0.30854zm-0.30853 0.0579v0.32782c0.0124 4.5e-4 0.0261 0 0.0386 0 7e-3 0 0.0125 1.4e-4 0.0193 0v-0.32782h-0.0578z" fill="url(#radialGradient36931)" opacity=".5"/>
      <path d="m708.64-231.98-5e-3 0.32777 0.0578 9.9e-4 5e-3 -0.32777c-7e-3 -2.6e-4 -0.0124-2.1e-4 -0.0193-3.3e-4 -0.0125-2e-4 -0.0262-8.6e-4 -0.0386-6.1e-4zm0.38465 0.0643-0.12051 0.28728 0.019 0.0196 0.13979-0.28696c-0.0126-6e-3 -0.0254-0.0149-0.0382-0.0199zm-0.75227 7e-3 0.11054 0.31043 0.0389-0.0186-0.11086-0.29114c-0.0113 4e-3 -0.0275-5e-3 -0.0386-6.2e-4zm-0.29243 0.18799c-0.0136 0.0124-0.0264 0.0248-0.0392 0.0379l0.22751 0.23523 0.0392-0.0379zm1.3689 0.0228-0.21595 0.22783 0.019 0.0196 0.2349-0.20823c-0.0124-0.0135-0.0248-0.0264-0.0379-0.0392zm-1.5865 0.30141c-6e-3 0.0133-0.0142 0.0247-0.0199 0.0382l0.28728 0.1205 0.0199-0.0382zm1.8124 0.0302-0.29114 0.11086 0.0186 0.0389 0.29115-0.11086c-2e-3 -6e-3 3e-3 -0.0137 3.2e-4 -0.0193-3e-3 -8e-3 -0.0155-0.0117-0.019-0.0196zm-1.9152 0.35378c-2.5e-4 7e-3 -2e-4 0.0124-3.2e-4 0.0193-1e-4 6e-3 -3.3e-4 0.013-3.2e-4 0.0193l0.32777 5e-3 6.2e-4 -0.0386-0.32777-5e-3zm1.6774 0.028-6.2e-4 0.0386 0.32778 5e-3c2.1e-4 -6e-3 2.1e-4 -0.013 3.2e-4 -0.0193 1.1e-4 -7e-3 3.4e-4 -0.0125 3.2e-4 -0.0193l-0.32777-5e-3zm-0.0617 0.2304-0.0203 0.0575 0.30625 0.14011c0.0102-0.0215 0.0308-0.0349 0.0395-0.0572l-0.32552-0.14043zm-1.2536-2e-3 -0.29146 0.13014c2e-3 6e-3 -3e-3 0.0132-3.3e-4 0.0193l0.31043-0.11054-0.0186-0.0389zm0.13143 0.21434-0.23523 0.22751c9e-3 0.01 0.01 0.0295 0.0186 0.0389l0.0193 3.2e-4 0.23523-0.22751-0.0379-0.0392zm0.98332 0.0164-0.0392 0.0379 0.22719 0.25451c0.0169-0.0154 0.0237-0.0407 0.0395-0.0572l-0.22751-0.23523zm-0.77381 0.14139-0.1401 0.30624c0.0131 6e-3 0.0248 0.0142 0.0382 0.0199l0.14011-0.30624-0.0382-0.0199zm0.55882 0.0286-0.0582 0.0183 0.12982 0.31074c0.013-5e-3 0.0261-0.0135 0.0389-0.0186l-0.11054-0.31043zm-0.30945 0.0527-5e-3 0.32777c0.0124 6.8e-4 0.0261 4.4e-4 0.0386 6.2e-4 7e-3 1.1e-4 0.0125 3.5e-4 0.0193 3.2e-4l5e-3 -0.32777-0.0578-9.9e-4z" fill="url(#radialGradient36933)" opacity=".5"/>
      <path d="m708.68-231.98-0.0185 0.3273 0.0578 3e-3 0.0185-0.3273c-7e-3 -5.2e-4 -0.0124-6.8e-4 -0.0192-1e-3 -0.0125-6.8e-4 -0.0261-2e-3 -0.0385-2e-3zm0.38179 0.0795-0.13183 0.28227 0.0182 0.0203 0.15108-0.28117c-0.0123-6e-3 -0.0248-0.0159-0.0374-0.0214zm-0.75194-0.0232 0.0981 0.31457 0.0396-0.0171-0.0992-0.29531c-0.0114 4e-3 -0.0273-6e-3 -0.0385-2e-3zm-0.29967 0.17621c-0.014 0.0118-0.0273 0.0238-0.0407 0.0363l0.21798 0.24409 0.0407-0.0363zm1.3669 0.0772-0.22483 0.21907 0.0182 0.0203 0.243-0.19873c-0.0119-0.014-0.0237-0.0273-0.0363-0.0407zm-1.5972 0.2381c-7e-3 0.013-0.0152 0.0241-0.0214 0.0374l0.28226 0.13183 0.0214-0.0374-0.28226-0.13184zm1.8098 0.10225-0.29532 0.0992 0.0171 0.0396 0.29532-0.0992c-2e-3 -6e-3 3e-3 -0.0136 1e-3 -0.0193-3e-3 -8e-3 -0.0151-0.0123-0.0182-0.0203zm-1.9278 0.27737c-5.2e-4 7e-3 -6.8e-4 0.0124-1e-3 0.0192-3.5e-4 6e-3 -8.6e-4 0.013-1e-3 0.0192l0.32729 0.0185 2e-3 -0.0385-0.32729-0.0185zm1.675 0.0946-2e-3 0.0385 0.32729 0.0185c4.7e-4 -6e-3 7.5e-4 -0.013 1e-3 -0.0192 3.8e-4 -7e-3 8.6e-4 -0.0124 1e-3 -0.0193l-0.3273-0.0185zm-0.0708 0.22777-0.0225 0.0567 0.30043 0.15217c0.011-0.0211 0.0322-0.0336 0.0418-0.0556l-0.31968-0.15326zm-1.2525-0.0514-0.2964 0.11845c2e-3 6e-3 -3e-3 0.0131-1e-3 0.0192l0.31457-0.0981-0.0171-0.0396zm0.12281 0.21939-0.24409 0.21798c8e-3 0.0101 8e-3 0.0299 0.0171 0.0396l0.0192 1e-3 0.24409-0.21798-0.0363-0.0407zm0.98189 0.0555-0.0407 0.0363 0.21689 0.26334c0.0175-0.0147 0.0253-0.0397 0.0418-0.0556l-0.21798-0.24409zm-0.77882 0.11051-0.15217 0.30043c0.0129 7e-3 0.0242 0.0152 0.0374 0.0214l0.15217-0.30043zm0.55725 0.0508-0.0588 0.016 0.11737 0.31565c0.0132-4e-3 0.0266-0.0124 0.0396-0.0171l-0.0981-0.31457zm-0.31131 0.0404-0.0185 0.3273c0.0123 1e-3 0.026 1e-3 0.0385 2e-3 7e-3 3.8e-4 0.0124 8.6e-4 0.0192 1e-3l0.0185-0.3273-0.0578-3e-3z" fill="url(#radialGradient36935)" opacity=".5"/>
      <path d="m708.71-231.98-0.0295 0.32649 0.0576 5e-3 0.0295-0.3265c-7e-3 -7.4e-4 -0.0124-1e-3 -0.0192-2e-3 -0.0124-1e-3 -0.026-3e-3 -0.0384-3e-3zm0.37891 0.0923-0.14122 0.27769 0.0175 0.0209 0.16042-0.27595c-0.0121-6e-3 -0.0242-0.0167-0.0367-0.0227zm-0.75074-0.0484 0.0875 0.31768 0.0401-0.0157-0.0892-0.29848c-0.0115 3e-3 -0.027-7e-3 -0.0384-3e-3zm-0.30541 0.16606c-0.0144 0.0113-0.0281 0.0228-0.0419 0.035l0.20968 0.25125 0.0419-0.0349-0.20967-0.25126zm1.3636 0.12302-0.23205 0.21141 0.0175 0.0209 0.24953-0.19047c-0.0114-0.0144-0.0228-0.0281-0.0349-0.0419zm-1.6043 0.18442c-7e-3 0.0128-0.016 0.0236-0.0227 0.0367l0.27769 0.14122 0.0227-0.0367-0.27768-0.14122zm1.8053 0.16286-0.29848 0.0893 0.0157 0.0401 0.29847-0.0892c-2e-3 -6e-3 4e-3 -0.0135 2e-3 -0.0192-3e-3 -8e-3 -0.0146-0.0128-0.0175-0.0209zm-1.936 0.21258c-7.4e-4 7e-3 -1e-3 0.0124-2e-3 0.0192-5.6e-4 6e-3 -1e-3 0.013-2e-3 0.0192l0.32649 0.0295 3e-3 -0.0384-0.32649-0.0295zm1.6709 0.15074-3e-3 0.0384 0.32649 0.0295c6.7e-4 -6e-3 1e-3 -0.013 2e-3 -0.0192 6.2e-4 -7e-3 1e-3 -0.0124 2e-3 -0.0192l-0.32649-0.0295zm-0.0784 0.22527-0.0244 0.0559 0.29516 0.16216c0.0117-0.0207 0.0333-0.0326 0.0436-0.0541l-0.31437-0.1639zm-1.2501-0.0934-0.30022 0.10845c2e-3 6e-3 -4e-3 0.013-2e-3 0.0192l0.31768-0.0875-0.0157-0.0401zm0.11537 0.22339-0.25125 0.20967c8e-3 0.0104 7e-3 0.0301 0.0157 0.0401l0.0192 2e-3 0.25126-0.20967-0.035-0.0419zm0.97948 0.0884-0.0419 0.035 0.20794 0.27047c0.018-0.0142 0.0266-0.0388 0.0436-0.0542l-0.20967-0.25126zm-0.78208 0.0843-0.16216 0.29516c0.0127 7e-3 0.0237 0.016 0.0367 0.0227l0.16216-0.29516zm0.55523 0.0694-0.0593 0.014 0.10672 0.31942c0.0133-4e-3 0.0271-0.0115 0.0401-0.0157l-0.0875-0.31768zm-0.31249 0.0299-0.0295 0.32649c0.0123 2e-3 0.026 2e-3 0.0384 3e-3 7e-3 6.1e-4 0.0124 1e-3 0.0192 2e-3l0.0295-0.32649z" fill="url(#radialGradient36937)" opacity=".5"/>
      <path d="m708.75-231.98-0.0406 0.32531 0.0574 7e-3 0.0406-0.3253c-7e-3 -9.8e-4 -0.0123-2e-3 -0.0191-2e-3 -0.0124-2e-3 -0.0259-4e-3 -0.0383-5e-3zm0.37555 0.10509-0.15057 0.27273 0.0168 0.0215 0.16971-0.27034c-0.0119-7e-3 -0.0237-0.0175-0.0359-0.0239zm-0.74866-0.0738 0.0767 0.32047 0.0407-0.0144-0.0791-0.30133c-0.0116 3e-3 -0.0268-8e-3 -0.0383-5e-3zm-0.31088 0.15559c-0.0148 0.0109-0.0289 0.0219-0.043 0.0335l0.20102 0.25823 0.043-0.0335zm1.3586 0.16927-0.2391 0.2034 0.0168 0.0215 0.25585-0.18188c-0.0109-0.0148-0.0218-0.0289-0.0335-0.043zm-1.6096 0.12981c-8e-3 0.0125-0.0168 0.023-0.0239 0.0359l0.27273 0.15057 0.0239-0.0359zm1.7987 0.2241-0.30134 0.0791 0.0144 0.0406 0.30134-0.0791c-1e-3 -6e-3 4e-3 -0.0134 2e-3 -0.0191-2e-3 -8e-3 -0.0142-0.0133-0.0168-0.0215zm-1.9421 0.14669c-9.9e-4 7e-3 -2e-3 0.0123-2e-3 0.0191-8e-4 6e-3 -2e-3 0.0129-2e-3 0.0191l0.3253 0.0406 5e-3 -0.0383-0.3253-0.0406zm1.6648 0.20741-5e-3 0.0383 0.3253 0.0406c8.7e-4 -6e-3 2e-3 -0.0129 2e-3 -0.0191 8.6e-4 -7e-3 2e-3 -0.0123 2e-3 -0.0191l-0.3253-0.0406zm-0.086 0.22247-0.0263 0.055 0.28948 0.17209c0.0124-0.0203 0.0344-0.0314 0.0454-0.0526l-0.30862-0.17448zm-1.2462-0.13582-0.30373 0.0982c2e-3 6e-3 -4e-3 0.0129-2e-3 0.0191l0.32047-0.0767-0.0144-0.0406zm0.10772 0.22718-0.25823 0.20102c8e-3 0.0106 6e-3 0.0304 0.0144 0.0406l0.0191 2e-3 0.25824-0.20102-0.0335-0.043zm0.97591 0.12159-0.043 0.0335 0.19863 0.27737c0.0185-0.0135 0.0279-0.0379 0.0454-0.0526l-0.20102-0.25824zm-0.78449 0.0577-0.17209 0.28948c0.0124 8e-3 0.0231 0.0168 0.0359 0.0239l0.1721-0.28948-0.0359-0.0239zm0.55254 0.0883-0.0598 0.012 0.0958 0.32285c0.0134-3e-3 0.0274-0.0106 0.0407-0.0144l-0.0767-0.32047zm-0.31332 0.0193-0.0406 0.3253c0.0122 2e-3 0.0259 3e-3 0.0383 5e-3 7e-3 8.7e-4 0.0124 2e-3 0.0191 2e-3l0.0406-0.3253z" fill="url(#radialGradient36939)" opacity=".5"/>
      <path transform="matrix(.61707 0 0 .61707 729.88 -246.09)" d="m-33.343 24.487a1.051 1.051 0 1 1-2.1019 0 1.051 1.051 0 1 1 2.1019 0z" fill="url(#linearGradient36913)" opacity=".5"/>
      <path transform="matrix(-.2576 0 0 1.0328 828.82 -116.67)" d="m378.17-112.29v2.1562h-0.21875v-2.125c-0.0802 0.0333-0.16875 0.0613-0.25 0.0937v2.0312h-0.25v-1.9375c-0.0823 0.0316-0.16672 0.063-0.25 0.0937v1.8438h-0.21875v-1.75c-0.0842 0.03-0.16482 0.0646-0.25 0.0937v1.6562h-0.3125v-1.5625c-0.0829 0.0271-0.16622 0.0674-0.25 0.0937v1.4688h-0.21875v-1.4062c-0.0817 0.0248-0.16743 0.0384-0.25 0.0625v1.3438h-0.25v-1.25c-0.0834 0.0234-0.16572 0.0398-0.25 0.0625v1.1875h-0.21875v-1.125c-0.0827 0.0215-0.1665 0.0417-0.25 0.0625v1.0625h-0.3125v-1c-0.0845 0.02-0.16476 0.0431-0.25 0.0625v0.9375h-0.21875v-0.875c-0.0859 0.0188-0.1633 0.0443-0.25 0.0625v0.8125h-0.25v-0.78125c-0.0818 0.0165-0.16754 0.0466-0.25 0.0625v0.71875h-0.21875v-0.6875c-0.0813 0.0151-0.16801 0.0167-0.25 0.0312v0.65625h-0.3125v-0.59375c-0.0828 0.0139-0.16657 0.0178-0.25 0.0312v0.5625h-0.21875v-0.53125c-0.0815 0.0126-0.1679 0.0192-0.25 0.0312v0.5h-0.25v-0.46875c-0.0827 0.0116-0.16673 0.0202-0.25 0.0312v0.4375h-0.21875v-0.40625c-0.0838 0.0107-0.16563 0.0211-0.25 0.0312v0.375h-0.3125v-0.34375c-0.0838 9e-3 -0.16561 0.0223-0.25 0.0312v0.3125h-0.21875v-0.28125c-0.0833 8e-3 -0.16614 0.0233-0.25 0.0312v0.25h-0.25v-0.21875c-0.0844 7e-3 -0.16507 0.0242-0.25 0.0312v0.1875h-0.21875v-0.1875c-0.0854 7e-3 -0.16408 0.025-0.25 0.0312v0.15625h-0.3125v-0.125c-0.081 5e-3 -0.16852 0.0263-0.25 0.0312v0.0937h-0.21875v-0.0937c-0.0814 5e-3 -0.16817-4e-3 -0.25 0v0.0937h-0.25v-0.0625c-0.0823 4e-3 -0.16727-4e-3 -0.25 0v0.0625h-0.21875v-0.0625c-0.0836 3e-3 -0.16592 0.0284-0.25 0.0312v0.0312h-0.3125v-0.0312c-0.083 2e-3 -0.16662-2e-3 -0.25 0v0.0312h-0.21875v-0.0312c-0.0838 2e-3 -0.16582-1e-3 -0.25 0v0.0312h-0.25v-0.0312c-0.0846 9.8e-4 -0.16497-6.3e-4 -0.25 0v0.0312h-0.21875v-0.0312c-0.0854 3.3e-4 -0.16419 3e-5 -0.25 0 0.0532 4e-3 0.10394 0.0238 0.15625 0.0312v0.15625h1.8438c0.0836 7e-3 0.16656 0.0239 0.25 0.0312v-0.0312h0.21875v0.0312c0.0833 7e-3 0.16692 0.0238 0.25 0.0312v-0.0625h0.25v0.0937c0.0819 7e-3 0.16828-8e-3 0.25 0v-0.0937h0.21875v0.125c0.0862 8e-3 0.16413 0.023 0.25 0.0312v-0.15625h0.3125v0.1875c0.0855 8e-3 0.16483 0.0226 0.25 0.0312v-0.21875h0.21875v0.25c0.0849 9e-3 0.16549 0.0223 0.25 0.0312v-0.28125h0.25v0.3125c0.0841 9e-3 0.16626 0.022 0.25 0.0312v-0.34375h0.21875v0.34375c0.0834 9e-3 0.16705 0.0216 0.25 0.0312v-0.375h0.3125v0.40625c0.0824 0.01 0.16808 0.0211 0.25 0.0312v-0.4375h0.21875v0.46875c0.0815 0.0103 0.16902 0.0207 0.25 0.0312v-0.5h0.25v0.53125c0.0833 0.0112 0.16724 0.0198 0.25 0.0312v-0.5625h0.21875v0.59375c0.0822 0.0117 0.16839 0.0193 0.25 0.0312v-0.625h0.3125v0.6875c0.0808 0.0123 0.16987 0.0186 0.25 0.0312v-0.71875h0.21875v0.75c0.0858 0.014 0.16507 0.0169 0.25 0.0312v-0.78125h0.25v0.84375c0.0841 0.0148 0.16681 0.0161 0.25 0.0312v-0.875h0.21875v0.90625c0.0824 0.0155 0.16852 0.0153 0.25 0.0312v-0.9375h0.3125v1.0312c0.0827 0.017 0.16836 0.0138 0.25 0.0312v-1.0625h0.21875v1.125c0.0829 0.0184 0.16831 0.0435 0.25 0.0625v-1.1875h0.25v1.2188c0.0813 0.0197 0.16991 0.0422 0.25 0.0625v-1.2812h0.21875v1.3438c0.0891 0.0235 0.16252 0.0695 0.25 0.0937v-1.4375h0.3125v1.5312c0.0825 0.0244 0.16915 0.0373 0.25 0.0625v-1.5938h0.21875v1.6562c0.0819-4e-3 0.16781 4e-3 0.25 0v-1.6562h0.25v1.625c0.0825-4e-3 0.16728 4e-3 0.25 0v-1.625h0.21875v1.625c0.0834-4e-3 0.16648-0.0279 0.25-0.0312v-1.5938h0.3125v1.5938c0.0837-3e-3 0.16628-0.0281 0.25-0.0312v-1.5625h0.21875v1.5625c0.0833-3e-3 0.16675 3e-3 0.25 0v-1.5625h0.25v1.5312c0.0832-3e-3 0.16693 3e-3 0.25 0v-1.5312h0.21875v1.5312c0.0853-4e-3 0.16486-0.0275 0.25-0.0312v-1.5h0.3125v1.5c0.0848-4e-3 0.16549-0.0269 0.25-0.0312v-1.4688h0.21875v1.4688c0.0842-5e-3 0.1662-0.0262 0.25-0.0312v-1.4375h0.25v1.4375c0.0834-5e-3 0.16714-0.0254 0.25-0.0312v-1.4062h0.21875v1.4062c0.0824-6e-3 0.1682-0.0244 0.25-0.0312v-1.375h0.3125v1.375c0.0856-8e-3 0.16514-0.0225 0.25-0.0312v-1.3438h0.21875v1.3125c0.0841-0.01 0.16675-0.021 0.25-0.0312v-1.2812h0.25v1.25c0.0823-0.0112 0.16869-0.0192 0.25-0.0312v-1.2188h0.21875v1.1875c0.0855-0.0138 0.16577-0.0475 0.25-0.0625v-1.125h0.3125v1.0938c0.0826-0.0165 0.16879-0.0447 0.25-0.0625v-1.0312h0.21875v1c0.0901-0.0214 0.16188-0.0706 0.25-0.0937v-0.90625h0.25v0.84375c0.0834-0.0242 0.16864-0.0364 0.25-0.0625v-0.78125h0.21875v0.71875c0.0853-0.0298 0.16722-0.0616 0.25-0.0937v-0.625h0.3125v0.46875c0.0848-0.0379 0.16836-0.0842 0.25-0.125v-0.34375h0.21875v0.21875c8e-3 -4e-3 0.0234 4e-3 0.0312 0 0.0775 4e-3 0.14283 0.0262 0.21875 0.0312v-0.25h0.25v0.28125c0.0845 7e-3 0.16757 0.0235 0.25 0.0312v-0.3125h0.21875v0.3125c0.0806 9e-3 0.17152 0.0216 0.25 0.0312v-0.34375h0.3125v0.40625c0.0885 0.0128 0.16452 0.017 0.25 0.0312v-0.4375h0.21875v0.46875c0.0847 0.0158 0.16848 0.0452 0.25 0.0625v-0.53125h0.25v0.5625c0.0857 0.0206 0.16821 0.0401 0.25 0.0625v-0.625h0.21875v0.71875c0.0845 0.0263 0.1702 0.0339 0.25 0.0625v-0.78125h0.3125v0.875c0.0862 0.0367 0.17041 0.0852 0.25 0.125v-1h0.21875v1.125c0.0901 0.0524 0.17007 0.0991 0.25 0.15625v-1.2812h0.25v1.3125c0.0883-0.0133 0.16521-0.0163 0.25-0.0312v-1.2812h0.21875v1.2188c0.0816-0.0165 0.17186-0.0131 0.25-0.0312v-1.1875h0.3125v1.125c0.0922-0.0253 0.16308-0.066 0.25-0.0937v-1.0312h0.21875v0.9375c0.0822-0.03 0.17297-0.0613 0.25-0.0937v-0.84375h0.25v0.75c0.0939-0.0459 0.1648-0.10627 0.25-0.15625v-0.59375h0.21875v0.46875c0.0856-0.0587 0.17455-0.12402 0.25-0.1875v-0.28125h0.1875v-0.15625h-0.1875v-0.5c-0.0748-0.0695-0.16671-0.12271-0.25-0.1875v0.6875h-0.21875v-0.84375c-0.0879-0.0587-0.15318-0.13377-0.25-0.1875v1.0312h-0.25v-1.125c-0.0784-0.0378-0.16603-0.0903-0.25-0.125v1.25h-0.21875v-1.3438c-0.0817-0.0294-0.1632-0.0671-0.25-0.0937v1.4375h-0.3125v-1.5c-0.0835-0.0211-0.16216-0.0438-0.25-0.0625v1.5625h-0.21875v-1.625c-0.0567-0.0102-0.0978-0.022-0.15625-0.0312-0.0298 0.0121-0.0639 0.0192-0.0937 0.0312v1.625h-0.25v-1.5312c-0.0813 0.0318-0.1681 0.0629-0.25 0.0937v1.4375h-0.21875v-1.3438c-0.0825 0.0298-0.16669 0.0653-0.25 0.0937v1.25h-0.3125v-1.1562c-0.0814 0.0257-0.16759 0.0384-0.25 0.0625v1.0938h-0.21875v-1.0312c-0.0862 0.0233-0.1626 0.0725-0.25 0.0937v0.9375h-0.25v-0.875c-0.0821 0.0176-0.16666 0.0157-0.25 0.0312v0.84375h-0.21875v-0.8125c-0.0834 0.0135-0.16521 0.0201-0.25 0.0312v0.78125h-0.3125v-0.75c-0.0841 8e-3 -0.16446 0.0257-0.25 0.0312v0.71875h-0.21875v-0.71875c-0.0829 3e-3 -0.16559 0.0304-0.25 0.0312v0.6875h-0.25v-0.6875c-0.0817-2e-3 -0.1668 4e-3 -0.25 0v0.6875h-0.21875v-0.71875c-0.074-5e-3 -0.1436 7e-3 -0.21875 0-0.0117-8e-3 -0.0195-0.0236-0.0312-0.0312v0.75h-0.3125v-0.90625c-0.0805-0.045-0.16721-0.0838-0.25-0.125v1.0312h-0.21875v-1.1562c-0.084-0.0375-0.16391-0.0909-0.25-0.125v1.2812h-0.25v-1.3438c-0.0829-0.0294-0.16541-0.0671-0.25-0.0937v1.4375h-0.21875v-1.5312c-0.0818-0.0232-0.16687-0.0416-0.25-0.0625v1.5938h-0.3125v-1.6562c-0.0837-0.0182-0.16517-0.0462-0.25-0.0625v1.7188h-0.21875v-1.75c-0.0828-0.0143-0.16627-0.0185-0.25-0.0312v1.7812h-0.25v-1.8125c-0.0821-0.011-0.16714-0.0215-0.25-0.0312v1.8438h-0.21875v-1.875c-0.0835-9e-3 -0.1659-0.0235-0.25-0.0312v1.9062h-0.3125v-1.9062c-0.0827-7e-3 -0.16687-0.0255-0.25-0.0312v1.9375h-0.21875v-1.9375c-0.0835-5e-3 -0.16616-0.0267-0.25-0.0312v1.9688h-0.25v-1.9688c-0.0841-4e-3 -0.16563-0.0276-0.25-0.0312v2h-0.21875v-2c-0.084-3e-3 -0.16592 3e-3 -0.25 0v2h-0.3125v-2.0312c-0.0842-3e-3 -0.16585 3e-3 -0.25 0v2.0312h-0.21875v-2.0625c-0.0841-3e-3 -0.16602 3e-3 -0.25 0v2.0625h-0.25v-2.0938c-0.0838-4e-3 -0.16642 4e-3 -0.25 0v2.0938h-0.21875v-2.0938c-0.0839-4e-3 -0.16646-0.0262-0.25-0.0312v2.125h-0.3125v-2.125c-0.083-6e-3 -0.16744-0.0246-0.25-0.0312zm16.562 2v0.28125c0.0438-0.0516 0.0864-0.10218 0.125-0.15625-0.0351-0.0477-0.0873-0.0788-0.125-0.125z" fill="#bfff72" opacity=".52817"/>
      <path d="m727.03-233.88v7.0366h8.0282v-7.0366z" fill="url(#linearGradient36943)" opacity=".5"/>
      <path d="m735.06-233.88v7.0312h-0.0937v-6.9375h-7.9375v-0.0937h8.0312z" fill="#217844" opacity=".5"/>
      <path d="m701.46-204.25 1.1668 2.2722c0.26056 0.43292 0.34372 0.79835 0.79836 0.79835h32.978c0.45464 0 0.56851-0.36543 0.82907-0.79835l1.1361-2.2722z" fill="url(#linearGradient36955)" opacity=".3"/>
    </g>
    <g transform="translate(-886,220)">
      <g>
        <path transform="matrix(.98259 0 0 .98259 455.11 35.483)" d="m460.84-255.38a0.22984 0.22984 0 0 0-0.125 0.1875c-0.0599 0.49581-0.46006 1.0321-1.0625 1.0938a0.22984 0.22984 0 0 0-0.0625 0 0.22984 0.22984 0 0 0-0.0625 0.0312 0.22984 0.22984 0 0 0-0.0312 0.0312 0.22984 0.22984 0 0 0-0.0312 0.0312 0.22984 0.22984 0 0 0-0.0312 0.0937 0.22984 0.22984 0 0 0 0 0.0312v1.5a0.22984 0.22984 0 0 0 0 0.0312 0.22984 0.22984 0 0 0 0.0312 0.0625 0.22984 0.22984 0 0 0 0.0312 0.0625 0.22984 0.22984 0 0 0 0.0312 0.0312 0.22984 0.22984 0 0 0 0.0625 0.0312 0.22984 0.22984 0 0 0 0.0625 0h1.0625v0.28125h-1.8438c-0.14868 0-0.25 0.13257-0.25 0.28125v0.0625c0 0.14868 0.10132 0.25 0.25 0.25h0.375c0.35517 0.30144 0.56714 0.75877 0.59375 1.2812l-2.125 3.7812-2.125-3.7812c0.0266-0.52248 0.26984-0.97981 0.625-1.2812h0.34375c0.14868 0 0.28125-0.10132 0.28125-0.25v-0.0625c0-0.14868-0.13257-0.28125-0.28125-0.28125h-5.1562c-0.14868 0-0.28125 0.13257-0.28125 0.28125v0.0625c0 0.14868 0.13257 0.25 0.28125 0.25h0.0625l4.9688 8.5312h2.4375a0.22984 0.22984 0 0 0 0.0312 0.0312 0.22984 0.22984 0 0 0 0.125 0.0625 0.22984 0.22984 0 0 0 0.0312 0h7.0312a0.22984 0.22984 0 0 0 0.1875-0.0937 0.22984 0.22984 0 0 0 0.0312-0.0312 0.22984 0.22984 0 0 0 0.0312-0.125v-0.4375a0.22984 0.22984 0 0 0-0.0312-0.0937 0.22984 0.22984 0 0 0-0.0312-0.0625 0.22984 0.22984 0 0 0-0.0312-0.0312 0.22984 0.22984 0 0 0-0.0312-0.0312 0.22984 0.22984 0 0 0-0.0312-0.0312l-1.75-0.5625v-11a0.22984 0.22984 0 0 0 0-0.0312 0.22984 0.22984 0 0 0-0.0312-0.0625 0.22984 0.22984 0 0 0-0.0312-0.0625 0.22984 0.22984 0 0 0-0.0625-0.0312 0.22984 0.22984 0 0 0-0.0625-0.0312 0.22984 0.22984 0 0 0-0.0625 0h-3.2188a0.22984 0.22984 0 0 0-0.0625 0 0.22984 0.22984 0 0 0-0.0625 0zm-0.125 9.6875v1.5312l-1.0938 0.375z"/>
        <path transform="matrix(.48341 0 0 .48341 917.31 -218.63)" d="m-38.781 13.516c-0.3022 0-0.5625 0.2603-0.5625 0.5625v0.125c0 0.3022 0.2603 0.53125 0.5625 0.53125h0.09375l10.188 17.375h5.1562l10.219-17.375h0.03125c0.3022 0 0.5625-0.22905 0.5625-0.53125v-0.125c0-0.3022-0.2603-0.5625-0.5625-0.5625h-10.469c-0.3022 0-0.5625 0.2603-0.5625 0.5625v0.125c0 0.3022 0.2603 0.53125 0.5625 0.53125h0.6875c0.75249 0.6117 1.2259 1.5377 1.2812 2.625l-4.3125 7.6875-4.3125-7.6875c0.05502-1.0813 0.50474-2.013 1.25-2.625h0.65625c0.3022 0 0.5625-0.22905 0.5625-0.53125v-0.125c0-0.3022-0.2603-0.5625-0.5625-0.5625z"/>
        <path d="m898.46-211.81 5.0305 8.5805h2.4926l5.0456-8.5805-5.0456 0.0151c0.49779 0.27251 0.81394 0.80613 0.84597 1.4351l-2.0847 3.7162-2.0847-3.7162c0.032-0.62899 0.34818-1.1626 0.84597-1.4351z" fill="#e7f700"/>
        <path d="m898.54-212.18c-0.14608 0-0.27191 0.12584-0.27191 0.27192v0.0604c0 0.14608 0.12583 0.25681 0.27191 0.25681h5.0607c0.14608 0 0.27191-0.11073 0.27191-0.25681v-0.0604c0-0.14608-0.12583-0.27192-0.27191-0.27192zm7.3569 0c-0.14608 0-0.27192 0.12584-0.27192 0.27192v0.0604c0 0.14608 0.12584 0.25681 0.27192 0.25681h5.0607c0.14609 0 0.27192-0.11073 0.27192-0.25681v-0.0604c0-0.14608-0.12583-0.27192-0.27192-0.27192z" fill="#e7f700"/>
        <path d="m898.53-212.19c-0.14608 0-0.28125 0.13517-0.28125 0.28125v0.0625c0 0.14608 0.13517 0.25 0.28125 0.25h0.0625l4.9062 8.375h2.5l4.9062-8.375h0.0625c0.14609 0 0.25-0.10392 0.25-0.25v-0.0625c0-0.14608-0.10391-0.28125-0.25-0.28125h-5.0625c-0.14608 0-0.28125 0.13517-0.28125 0.28125v0.0625c0 0.14608 0.13517 0.25 0.28125 0.25h0.34375c0.34047 0.29627 0.56797 0.74374 0.59375 1.25l-2.0938 3.7188-2.0938-3.7188c0.0261-0.51339 0.24476-0.95381 0.59375-1.25h0.34375c0.14608 0 0.28125-0.10392 0.28125-0.25v-0.0625c0-0.14608-0.13517-0.28125-0.28125-0.28125z" fill="url(#linearGradient39161)" opacity=".5"/>
        <path d="m898.53-212.19c-0.14608 0-0.28125 0.13517-0.28125 0.28125v0.0625c0 0.14608 0.13517 0.25 0.28125 0.25h0.0625l4.9062 8.375h2.5l4.9062-8.375h0.0625c0.14609 0 0.25-0.10392 0.25-0.25v-0.0625c0-0.14608-0.10391-0.28125-0.25-0.28125h-5.0625c-0.14608 0-0.28125 0.13517-0.28125 0.28125v0.0625c0 0.14608 0.13517 0.25 0.28125 0.25h0.34375c0.34047 0.29627 0.56797 0.74374 0.59375 1.25l-2.0938 3.7188-2.0938-3.7188c0.0261-0.51339 0.24476-0.95381 0.59375-1.25h0.34375c0.14608 0 0.28125-0.10392 0.28125-0.25v-0.0625c0-0.14608-0.13517-0.28125-0.28125-0.28125z" fill="url(#linearGradient39163)" opacity=".5"/>
        <rect x="905.63" y="-212.18" width="5.5962" height=".58599" rx=".032833" ry=".032833" fill="url(#linearGradient39165)"/>
        <rect x="898.27" y="-212.18" width="5.5962" height=".58599" rx=".032833" ry=".032833" fill="url(#linearGradient39167)"/>
        <path d="m903.18-203.75 0.31724 0.52873h2.4926l0.31724-0.52873z" fill="url(#linearGradient39169)"/>
        <path transform="matrix(.98259 0 0 .98259 455.11 35.483)" d="m460.77-255.57a0.22984 0.22984 0 0 0-0.17017 0.20019c-0.0599 0.49581-0.4786 1.0094-1.081 1.071a0.22984 0.22984 0 0 0-0.21021 0.23022v1.5015a0.22984 0.22984 0 0 0 0.23023 0.23022h1.061v7.9978l-1.7417 0.57055a0.22984 0.22984 0 0 0-0.16016 0.22022v0.46044a0.22984 0.22984 0 0 0 0.23022 0.23022h7.0468a0.22984 0.22984 0 0 0 0.23022-0.23022v-0.46044a0.22984 0.22984 0 0 0-0.16015-0.22022l-1.7417-0.57055v-11.001a0.22984 0.22984 0 0 0-0.23022-0.23022h-3.2431a0.22984 0.22984 0 0 0-0.04 0 0.22984 0.22984 0 0 0-0.02 0z"/>
        <path d="m907.86-215.64a0.22584 0.22584 0 0 0-0.16721 0.19671c-0.0589 0.48718-0.47027 0.99179-1.0622 1.0524a0.22584 0.22584 0 0 0-0.20655 0.22621v1.4753a0.22584 0.22584 0 0 0 0.22622 0.22622h1.0426v7.8585l-1.7114 0.56062a0.22584 0.22584 0 0 0-0.15737 0.21639v0.45242a0.22584 0.22584 0 0 0 0.22621 0.22621h6.9242a0.22584 0.22584 0 0 0 0.22621-0.22621v-0.45242a0.22584 0.22584 0 0 0-0.15736-0.21639l-1.7114-0.56062v-10.809a0.22584 0.22584 0 0 0-0.22621-0.22621h-3.1867a0.22584 0.22584 0 0 0-0.0393 0 0.22584 0.22584 0 0 0-0.0197 0z"/>
        <path transform="matrix(.32455 0 0 .32455 900.43 -215.87)" d="m22.406 35.125-5.1562 1.7188c-0.08001 0.0255-0.15353 0.12755-0.1875 0.21875h3.1562c-0.49076-0.66875 1.7902-1.0782 2.1875-1.5938zm11.625 0.1875v0.40625c0.33146 0.54458 2.0519 0.80812 1.7188 1.3438h3.1875c-0.033973-0.0912-0.10749-0.19329-0.1875-0.21875z" fill="url(#linearGradient39171)" opacity=".4"/>
        <path d="m898.58-211.6 0.81576 1.3747h3.3385l-0.0755-0.13596c0.0254-0.49938 0.22946-0.94239 0.55894-1.2387zm7.6892 0c0.32948 0.29635 0.53351 0.73936 0.55894 1.2387l-0.0755 0.13596h3.3386l0.81575-1.3747z" fill="url(#linearGradient39173)"/>
        <path transform="matrix(.32455 0 0 .32455 900.34 -216.05)" d="m23.085 1.2541a0.69585 0.69585 0 0 0-0.51519 0.6061c-0.18142 1.5011-1.449 3.056-3.273 3.2427a0.69585 0.69585 0 0 0-0.63641 0.69702v4.5458a0.69585 0.69585 0 0 0 0.69702 0.69702h3.2124v24.214l-5.2731 1.7274a0.69585 0.69585 0 0 0-0.48488 0.66671v1.394a0.69585 0.69585 0 0 0 0.69702 0.69702h21.335a0.69585 0.69585 0 0 0 0.69702-0.69702v-1.394a0.69585 0.69585 0 0 0-0.48488-0.66671l-5.2731-1.7274v-33.305a0.69585 0.69585 0 0 0-0.69702-0.69702h-9.8189a0.69585 0.69585 0 0 0-0.12122 0 0.69585 0.69585 0 0 0-0.0606 0z" fill="#cc0"/>
        <path d="m908.16-215c-0.17472 0.49545-0.56207 0.86484-1.0938 1.0625v0.8125h0.59375a0.65006 0.65006 0 0 1 0.65625 0.65625v7.875a0.65006 0.65006 0 0 1-0.4375 0.59375l-0.5625 0.1875h4.3438l-0.5625-0.1875a0.65006 0.65006 0 0 1-0.4375-0.59375v-10.406z" fill="#660" opacity=".5"/>
        <path d="m907.83-215.64a0.22584 0.22584 0 0 0-0.1672 0.19671c-0.0589 0.48717-0.47027 0.99179-1.0622 1.0524a0.22584 0.22584 0 0 0-0.20654 0.22621v1.4753a0.22584 0.22584 0 0 0 0.22621 0.22622h1.0426v7.8585l-1.7114 0.56062a0.22584 0.22584 0 0 0-0.15736 0.21638v0.45243a0.22584 0.22584 0 0 0 0.22621 0.22621h6.9242a0.22584 0.22584 0 0 0 0.22621-0.22621v-0.45243a0.22584 0.22584 0 0 0-0.15736-0.21638l-1.7114-0.56062v-10.809a0.22584 0.22584 0 0 0-0.22621-0.22621h-3.1867a0.22584 0.22584 0 0 0-0.0393 0 0.22584 0.22584 0 0 0-0.0197 0z" fill="url(#radialGradient39175)"/>
        <rect transform="matrix(.64748 0 0 .37276 919.92 -59.545)" x="-20.438" y="-414.75" width=".9375" height="3.8125" fill="url(#linearGradient39177)" opacity=".2"/>
        <path transform="matrix(.32455 0 0 .32455 893.94 -92.543)" d="m42.906-379.28c-0.27292 0.0795-0.48239 0.34129-0.5 0.625-0.18142 1.5011-1.4573 3.032-3.2812 3.2188-0.35871 0.0202-0.66864 0.35968-0.65625 0.71875v4.5312c0.0042 0.36931 0.34961 0.69968 0.71875 0.6875h3.2188v24.219l-5.2812 1.75c-0.28248 0.0828-0.49514 0.36192-0.5 0.65625v1.375c-0.01271 0.37966 0.33909 0.73146 0.71875 0.71875h21.312c0.37966 0.0127 0.73146-0.33909 0.71875-0.71875v-1.375c-0.0049-0.29433-0.21752-0.57344-0.5-0.65625l-5.2812-1.75v-33.312c-0.0043-0.35879-0.57871-0.68322-0.9375-0.6875h-9.5625c-0.04155-4e-3 -0.08345-4e-3 -0.125 0-0.02082-9.4e-4 -0.04168-9.4e-4 -0.0625 0zm0.90625 0.6875c0.01915-8.3e-4 0.01211-8.3e-4 0.03125 0 0.03821-3e-3 0.08679-3e-3 0.125 0h8.4375c0.34615-5.8e-4 0.65683 0.3101 0.65625 0.65625v32.656c0.70821 1.0334 6.0148 1.9078 4.9339 3.3835-3.3239 0-6.1053-2e-3 -9.9964-2e-3s-6.6725 2e-3 -9.9964 2e-3c-1.5531-1.8584 4.3285-2.3459 4.9339-3.3835v-23.844c-0.0099-0.75365 0.32318-0.81134-0.125-1.3438-0.44818-0.53241-2.1899-0.10049-2.5-0.25-0.31008-0.14945-0.68794-0.79909-0.6875-1.0625v-2.125c-0.0013-0.24942 0.22024-0.4787 0.46875-0.5 1.3158-0.1347 3.0468-2.1706 3.2188-3.5938 0.02566-0.26635 0.24126-0.52555 0.5-0.59375z" clip-path="url(#clipPath17725)" fill="#330"/>
      </g>
      <path d="m908.41-214.56c-0.0733 0.1197-0.0953 0.26852-0.1875 0.375h0.65625v10.25h0.84375v-10.625z" fill="#99cc0f" fill-opacity=".94118" opacity=".2"/>
      <path transform="matrix(.32455 0 0 .32455 900.43 -215.87)" d="m23 1.125c-0.09942 0.0262-0.20885 0.14765-0.21875 0.25-0.2041 1.6888-1.5959 3.386-3.625 3.5938-0.11742 0.0101-0.28188 0.19465-0.28125 0.3125v0.34375h1.125c0.02984-9e-3 0.06269-0.0287 0.09375-0.0312 1.3158-0.1347 3.0468-2.1706 3.2188-3.5938 0.02566-0.26635 0.24126-0.52555 0.5-0.59375 0.01915-8.3e-4 0.01211-8.3e-4 0.03125 0 0.03821-3e-3 0.08679-3e-3 0.125 0h8.4375c0.34615-5.8e-4 0.65683 0.3101 0.65625 0.65625-0.10468 0.59875 0.15625 2.625 0.15625 2.625v-3.2812c2.05e-4 -0.12188-0.19062-0.28145-0.3125-0.28125h-9.8438c-0.01708-1e-3 -0.04542-1e-3 -0.0625 0z" fill="#fff" opacity=".5"/>
      <path d="m907.7-212.47-0.54768-0.0349v8.0934l0.54768-0.18255z" fill="url(#linearGradient39179)" opacity=".5"/>
    </g>
  </g>
</svg>
